<svg width="598" height="311" viewBox="0 0 598 311" fill="none" xmlns="http://www.w3.org/2000/svg">
<mask id="mask0" mask-type="alpha" maskUnits="userSpaceOnUse" x="0" y="0" width="598" height="311">
<rect width="598" height="311" rx="8" fill="#141D30"/>
<rect x="1" y="1" width="596" height="309" rx="7" stroke="#644BEC" stroke-opacity="0.2" stroke-width="2"/>
</mask>
<g mask="url(#mask0)">
<path opacity="0.2" fill-rule="evenodd" clip-rule="evenodd" d="M351.712 -372.238L559.018 -8.64206L555.002 -5.71585C535.612 -26.9004 512.395 -49.9586 489.498 -69.2175C466.532 -88.5341 444.133 -103.817 426.353 -109.729C417.461 -112.685 410.1 -113.169 404.488 -111.046C399.03 -108.981 394.708 -104.245 392.25 -95.4999C389.77 -86.6711 389.269 -73.9671 391.456 -56.5211C393.638 -39.1115 398.472 -17.1581 406.507 10.074C407.782 14.3955 408.92 18.6568 409.925 22.8585C422.851 27.4203 434.117 34.7389 443.14 44.8183C450.765 53.3358 456.709 63.7391 460.682 75.975L521.868 -20.0115L526.33 -17.8235C516.631 9.20792 507.06 40.499 500.7 69.7346C494.321 99.0579 491.246 125.999 494.308 144.485C495.839 153.729 498.844 160.467 503.339 164.441C506.647 167.367 511.006 169.003 516.782 168.801C515.945 165.625 515.052 162.427 514.102 159.207C506.01 131.781 502.51 110.344 502.842 94.0277C503.175 77.726 507.348 66.1937 514.985 59.0618C522.645 51.909 533.288 49.6473 545.498 50.7722C557.702 51.8964 571.793 56.4214 586.828 63.251C600.785 69.5912 615.694 77.983 630.849 87.6654C665.446 61.1142 700.948 50.3949 736.079 51.3623C736.99 51.3874 737.901 51.4203 738.812 51.4611L710.418 -155.222L715.372 -155.902L743.901 51.7697C783.478 54.7953 822.185 72.296 858.203 97.7604C893.254 122.541 925.911 154.97 954.542 189.291C977.523 196.839 991.903 209.062 1001.39 223.226C1012.12 239.259 1016.33 257.498 1019.93 273.084C1020.07 273.7 1020.21 274.311 1020.35 274.918C1021.26 278.835 1022.13 282.549 1023.07 286.015C1028.04 294.297 1032.64 302.356 1036.87 310.099L1033.32 313.4C1027.9 309.917 1024.38 304.449 1021.77 298.042C1020.5 294.948 1019.42 291.568 1018.43 287.997C1000.39 257.935 977.696 224.99 951.636 193.616C920.976 183.924 873.984 182.507 800.528 197.013C787.264 199.633 775.501 202.778 765.14 206.369L765.328 207.734L764.335 206.65C725.227 220.389 706.352 240.536 702.346 262.665C697.217 290.993 716.046 324.347 752.177 354.752C824.209 415.366 962.169 461.691 1097.48 429.128L1098.65 433.989C961.7 466.946 822.13 420.151 748.958 358.577C712.487 327.887 691.795 292.879 697.426 261.774C701.813 237.538 721.939 216.731 760.679 202.656L759.916 201.822C730.741 169.947 679.8 125.363 631.127 93.7899C625.071 98.5966 619.037 103.911 613.03 109.759C592.572 129.677 575.193 144.387 560.513 154.643C545.863 164.878 533.753 170.782 523.845 172.906C523.571 172.965 523.298 173.021 523.027 173.074C548.23 275.883 515.219 355.971 457.242 411.179C396.556 468.968 308.618 499.429 231.76 500.542L230.493 495.866C232.946 494.479 235.643 493.014 238.564 491.428L238.567 491.427C259.462 480.078 291.774 462.527 327.512 423.116C368.264 378.177 413.551 304.692 450.946 179.44C461.963 142.543 463.78 112.148 458.772 88.2746L301.108 335.612L296.892 332.924L457.133 81.5438C453.388 68.1116 447.316 56.9803 439.414 48.1532C431.723 39.5617 422.207 33.0526 411.246 28.7002C421.215 75.5666 414.4 114.864 395.991 147.571C375.238 184.443 339.908 212.666 297.999 233.969C239.448 263.732 167.669 280.186 103.634 287.776C97.1858 305.648 91.3066 324.453 86.0915 344.199L81.2573 342.923C86.282 323.897 91.9224 305.729 98.0957 288.412C73.3257 291.171 49.8239 292.604 28.831 292.973C27.421 309.388 27.5058 325.846 29.2952 342.229L24.3247 342.771C16.6693 272.683 39.597 201.596 76.8832 138.445C114.177 75.2803 165.951 19.8539 216.337 -18.9977C241.533 -38.4252 266.433 -53.7481 289.058 -63.8208C311.628 -73.869 332.175 -78.8006 348.573 -77.1358C356.81 -76.2997 364.076 -73.7905 369.997 -69.3551C375.931 -64.9095 380.369 -58.636 383.101 -50.5188C388.334 -34.9691 387.331 -12.6118 378.803 17.2604C387.795 17.5538 396.349 18.8293 404.341 21.0877C403.542 17.924 402.666 14.7246 401.711 11.4889C393.631 -15.8968 388.721 -38.1303 386.494 -55.8992C384.272 -73.6316 384.696 -87.0975 387.437 -96.8525C390.201 -106.691 395.398 -112.953 402.718 -115.722C409.885 -118.433 418.561 -117.588 427.93 -114.473C446.67 -108.243 469.681 -92.4195 492.716 -73.0439C510.344 -58.2166 528.13 -41.1851 544.23 -24.4839L347.368 -369.762L351.712 -372.238ZM405.691 26.7183C396.987 23.9481 387.481 22.4363 377.342 22.2159C339.442 147.466 262.016 209.602 188.998 243.159C161.183 255.942 134.021 264.573 109.968 270.977C108.472 274.776 107.003 278.62 105.561 282.508C168.521 274.84 238.595 258.557 295.733 229.512C337.128 208.47 371.533 180.831 391.634 145.119C409.772 112.892 416.388 73.8681 405.691 26.7183ZM99.9915 283.167C101.303 279.587 102.637 276.045 103.993 272.539C98.5142 273.948 93.2149 275.244 88.1266 276.452C81.5761 278.008 75.4161 279.409 69.6732 280.714C62.7446 282.29 56.4231 283.728 50.755 285.132C47.3179 285.984 44.1767 286.811 41.3438 287.632C59.5741 286.969 79.3634 285.53 99.9915 283.167ZM112.286 265.175C135.249 258.923 160.803 250.613 186.91 238.615C258.598 205.669 334.548 144.88 372.115 22.2156C360.378 22.4648 347.864 24.382 334.818 28.0152C259.832 48.8987 168.589 126.315 112.286 265.175ZM373.617 17.1997C360.922 17.3117 347.432 19.3121 333.477 23.1985C255.996 44.7768 162.876 124.662 106.252 266.787C99.562 268.542 93.1173 270.128 86.9713 271.587C80.5541 273.111 74.4218 274.506 68.6748 275.814L68.6725 275.814L68.6499 275.819C61.6523 277.411 55.2262 278.873 49.5523 280.279C41.4815 282.279 34.6226 284.235 29.4716 286.432C34.9875 236.269 54.2253 186.654 81.1887 140.987C118.132 78.4174 169.463 23.4599 219.39 -15.0381C244.352 -34.2854 268.912 -49.3787 291.091 -59.2531C313.326 -69.152 332.929 -73.6983 348.068 -72.1614C355.601 -71.3967 361.951 -69.1352 366.999 -65.3535C372.033 -61.5822 375.916 -56.1924 378.362 -48.9239C383.189 -34.5834 382.395 -12.987 373.617 17.1997ZM462.535 82.3702C469.119 108.064 467.63 141.039 455.737 180.871C418.178 306.669 372.576 380.865 331.216 426.475C295.524 465.835 263.054 483.816 242.071 495.214C315.269 491.659 396.842 461.791 453.794 407.558C510.632 353.434 543.04 274.982 518.042 173.739C510.723 174.228 504.706 172.325 500.027 168.187C494.287 163.112 490.989 155.042 489.375 145.302C486.148 125.819 489.416 98.0846 495.814 68.6718C500.711 46.1632 507.483 22.4876 514.75 0.457397L462.535 82.3702ZM521.798 168.219C522.127 168.157 522.46 168.09 522.797 168.017C531.764 166.095 543.236 160.614 557.649 150.544C572.033 140.496 589.199 125.982 609.542 106.176C615.226 100.642 620.943 95.5703 626.685 90.9409C612.232 81.7773 598.045 73.8381 584.76 67.8033C569.969 61.0847 556.457 56.8028 545.04 55.7511C533.629 54.7 524.634 56.8933 518.398 62.7162C512.14 68.5601 508.159 78.5244 507.841 94.1297C507.523 109.721 510.875 130.602 518.898 157.792C519.931 161.293 520.897 164.769 521.798 168.219ZM635.313 90.5504C681.135 120.488 728.557 161.483 758.211 192.668L739.504 56.4998C738.317 56.4396 737.129 56.3931 735.941 56.3604C702.547 55.4408 668.629 65.4262 635.313 90.5504ZM744.598 56.8413L764.448 201.328C774.862 197.77 786.549 194.677 799.56 192.108C867.837 178.625 914.107 178.694 945.881 186.778C918.669 154.874 888.019 124.963 855.317 101.843C820.073 76.9262 782.604 60.0089 744.598 56.8413ZM960.857 196.972C981.148 222.002 999.263 247.8 1014.58 272.18C1011.07 257.037 1006.95 240.532 997.231 226.008C989.597 214.605 978.362 204.255 960.857 196.972Z" fill="white"/>
</g>
</svg>
