<svg width="103" height="173" viewBox="0 0 103 173" fill="none" xmlns="http://www.w3.org/2000/svg">
<mask id="mask0" mask-type="alpha" maskUnits="userSpaceOnUse" x="0" y="0" width="103" height="173">
<rect width="103" height="173" rx="8" fill="#644BEC"/>
</mask>
<g mask="url(#mask0)">
<path opacity="0.2" d="M9.36369 178.01C1.79122 74.5513 115.188 -35.8692 96.4618 57.7282C77.7356 151.326 19.3168 150.227 9.36369 158.625C47.4944 157.8 119.73 135.789 103.626 54.3373C87.5215 -27.1141 122.355 15.8793 141.785 47.5574L133.573 -79.5M277 211.213C208.979 235.64 138.327 141.779 202.544 122.855C221.06 117.398 232.972 117.94 240.779 121.695M240.779 121.695C254.975 128.524 255.602 145.977 257.684 157.32M240.779 121.695C247.386 133.539 253.13 145.984 257.684 157.32M240.779 121.695C218.055 80.9584 185.135 47.3486 155.386 90.5706C114.611 149.811 123.854 83.7792 133.573 43.358L77.366 174.941M257.684 157.32C258.429 161.374 259.359 164.648 261.162 166.377C260.097 163.465 258.936 160.434 257.684 157.32ZM23.5703 178.406C48.5745 37.1223 134.652 23.8867 115.926 117.484C97.1995 211.082 70.5111 227.602 60.558 236C98.6887 235.176 147.809 190.862 131.705 109.41C115.601 27.9589 173.549 93.2544 192.979 124.932L180.771 -7.67948" stroke="white" stroke-opacity="0.5" stroke-width="2"/>
</g>
</svg>
