<svg viewBox="0 0 718 424" fill="none" xmlns="http://www.w3.org/2000/svg" preserveAspectRatio="none">
<path opacity="0.2" d="M4 81.8845L106.824 372.454M4 81.8845L82 130.385M4 81.8845L221.529 3.00003M106.824 372.454L183.5 310.6M106.824 372.454L82 130.385M183.5 310.6L266.5 247.885M183.5 310.6L82 130.385M266.5 247.885L221.529 418.885L486.882 310.6M266.5 247.885L82 130.385M266.5 247.885L486.882 310.6M266.5 247.885L486.882 157.885M266.5 247.885L221.529 3.00003M486.882 310.6L608.471 59.8391M486.882 310.6L714 399.202L608.471 59.8391M486.882 310.6L486.882 157.885M608.471 59.8391L486.882 157.885M608.471 59.8391L426 3.00004L221.529 3.00003M82 130.385L221.529 3.00003M486.882 157.885L221.529 3.00003" stroke="white" stroke-width="5"/>
</svg>
