<svg width="316" height="401" viewBox="0 0 316 401" fill="none" xmlns="http://www.w3.org/2000/svg">
<path opacity="0.2" fill-rule="evenodd" clip-rule="evenodd" d="M-100.053 -148.258L317.391 -253.159L318.609 -248.31L-78.3734 -148.55C-64.5652 -148.52 -50.2634 -148.148 -36.089 -147.352L217.812 -190.2L218.644 -185.269L-15.0484 -145.832C-11.7002 -145.533 -8.37744 -145.206 -5.08878 -144.851C25.685 -141.532 53.7941 -135.702 71.7407 -126.218C80.713 -121.477 87.4972 -115.641 90.5737 -108.407C93.7144 -101.022 92.7704 -92.7251 87.4416 -83.6779C84.2147 -78.1991 79.3465 -72.3748 72.6881 -66.1711C77.1842 -69.0742 81.7755 -71.5644 86.4441 -73.6543C108.783 -83.654 132.685 -84.3928 156.034 -77.6081C202.64 -64.0656 247.048 -20.5922 273.514 39.3287C303.916 108.163 310.777 198.895 270.288 292.05C281.425 344.782 285.183 403.231 279.024 460.533L274.053 459.998C279.902 405.584 276.716 350.222 266.782 299.866C235.823 366.782 180.151 434.664 90.9779 496.322L88.1342 492.209C179.388 429.113 235.112 359.62 265.064 291.524C252.771 234.206 231.7 183.964 205.339 149.888C180.086 117.243 150.404 99.9242 119.271 104.519C88.0092 109.133 54.1804 135.974 21.0435 194.379C-16.9906 261.416 -30.8854 307.791 -31.3886 340.907C-9.24142 376.578 15.5344 409.472 39.0078 436.882C42.1725 439.009 45.1191 441.162 47.7268 443.403C53.1218 448.039 57.3004 453.242 58.9315 459.649L54.6781 461.968C48.4956 455.32 42.1284 448.198 35.6586 440.657C32.5789 438.607 29.237 436.54 25.7082 434.379C25.1627 434.045 24.6131 433.709 24.0598 433.371C10.0202 424.785 -6.39578 414.747 -18.5414 399.059C-29.2697 385.203 -36.5182 367.193 -36.41 342.296C-48.8984 322.089 -60.5455 300.997 -70.6505 279.499C-72.361 290.428 -73.8128 301.088 -75.0341 311.447C-85.85 403.192 -78.5683 471.204 -72.8475 493.648L-77.0996 495.969C-102.116 469.104 -138.981 438.582 -178.24 406.079C-180.779 403.976 -183.329 401.865 -185.887 399.746C-227.89 364.942 -271.839 328.075 -305.932 291.398C-339.937 254.817 -364.595 217.957 -367.26 183.132C-368.602 165.608 -364.368 148.677 -353.113 132.715C-341.893 116.803 -323.776 101.963 -297.512 88.3849C-245.566 61.5302 -208.278 35.3746 -183.389 11.3535C-158.458 -12.7081 -146.184 -34.4171 -143.784 -52.3627C-141.414 -70.0801 -148.616 -84.4713 -163.634 -94.4271C-178.797 -104.479 -202.007 -110.026 -231.367 -109.352L-231.841 -114.317L-60.0576 -143.307C-73.5439 -143.638 -86.8368 -143.622 -99.3863 -143.334L-100.053 -148.258ZM-35.8107 -142.328L-207.16 -113.411C-188.243 -111.386 -172.516 -106.314 -160.871 -98.5945C-144.397 -87.673 -136.183 -71.474 -138.828 -51.6999C-141.442 -32.1539 -154.614 -9.47006 -179.917 14.9512C-205.262 39.4129 -242.996 65.83 -295.216 92.8265C-321.034 106.174 -338.417 120.549 -349.027 135.596C-359.602 150.594 -363.529 166.368 -362.275 182.751C-359.75 215.739 -336.193 251.5 -302.269 287.994C-268.434 324.394 -224.74 361.059 -182.697 395.896C-180.158 397.999 -177.626 400.095 -175.102 402.185L-174.937 402.321L-174.936 402.323C-138.851 432.197 -104.497 460.639 -79.5688 486.143C-84.9269 457.067 -89.7281 393.381 -79.9997 310.862C-78.4977 298.121 -76.6489 284.928 -74.4017 271.34C-82.2635 253.847 -89.0552 236.127 -94.4042 218.433C-108.404 172.122 -112.586 125.779 -99.9829 84.1136C-87.3538 42.3617 -57.9601 5.60779 -5.41953 -21.5887C20.5171 -35.0143 40.2589 -47.0597 54.7409 -57.8409C69.2523 -68.644 78.3365 -78.0713 83.1334 -86.2154C87.8864 -94.2851 88.3347 -100.896 85.9725 -106.45C83.546 -112.156 77.9319 -117.292 69.4047 -121.798C52.3524 -130.808 25.0575 -136.571 -5.62503 -139.88C-15.4516 -140.94 -25.5926 -141.745 -35.8107 -142.328ZM-69.2209 270.666C-59.5445 292.029 -48.2612 313.056 -36.0637 333.27C-33.6761 299.603 -18.7261 254.343 16.6947 191.912C50.0849 133.06 84.9675 104.528 118.541 99.5728C152.244 94.5984 183.523 113.514 209.294 146.828C235.107 180.196 255.821 228.499 268.432 283.612C305.33 193.935 298.032 107.215 268.94 41.3488C242.875 -17.6651 199.419 -59.7948 154.639 -72.8066C132.296 -79.2991 109.625 -78.5528 88.487 -69.0907C67.3352 -59.6223 47.5085 -41.3307 31.0577 -12.3723C-25.8472 87.7981 -55.1861 186.723 -69.2209 270.666ZM-72.8754 262.403C-79.373 247.344 -85.0339 232.15 -89.6181 216.986C-103.452 171.226 -107.415 125.955 -95.197 85.5612C-83.005 45.2543 -54.6116 9.50464 -3.12106 -17.1484C20.8202 -29.541 39.635 -40.8263 53.9882 -51.1018C44.156 -41.4448 34.9874 -29.4123 26.7103 -14.842C-28.8557 82.9713 -58.2884 179.598 -72.8754 262.403ZM25.2029 428.208C6.25867 405.171 -13.1778 378.889 -31.131 350.708C-29.7552 370.328 -23.284 384.766 -14.5878 395.998C-3.47043 410.358 11.4705 419.795 25.2029 428.208Z" fill="white"/>
</svg>
