<svg width="301" height="400" viewBox="0 0 301 400" fill="none" xmlns="http://www.w3.org/2000/svg">
<mask id="mask0" mask-type="alpha" maskUnits="userSpaceOnUse" x="0" y="0" width="301" height="400">
<rect width="301" height="400" fill="#644BEC"/>
</mask>
<g mask="url(#mask0)">
<path opacity="0.2" d="M57.0923 377.313L125.662 593.745M57.0923 377.313L7.47918 220.713M57.0923 377.313L138.729 -13.6418M125.662 593.745L264.326 382.826M125.662 593.745L7.47918 220.713M264.326 382.826L154.785 239.243M264.326 382.826L7.47918 220.713M154.785 239.243L290.766 561.689L300.988 163.661M154.785 239.243L7.47918 220.713M154.785 239.243L300.988 163.661M154.785 239.243L314.533 -0.0438544M154.785 239.243L138.729 -13.6418M300.988 163.661L465.749 -134.072M300.988 163.661L570.692 230.692L465.749 -134.072M300.988 163.661L314.533 -0.0438544M465.749 -134.072L314.533 -0.0438544M465.749 -134.072L215.715 -63.6835L138.729 -13.6418M7.47918 220.713L138.729 -13.6418M314.533 -0.0438544L138.729 -13.6418" stroke="white" stroke-width="5"/>
</g>
</svg>
