<svg width="48" height="48" viewBox="0 0 48 48" fill="none" xmlns="http://www.w3.org/2000/svg">
<path d="M24 0C10.7659 0 0 10.7659 0 24C0 37.2341 10.7659 48 24 48C37.2341 48 48 37.2341 48 24C48 10.7659 37.2341 0 24 0ZM24 10.0001C25.1041 10.0001 25.9999 10.8959 25.9999 12C25.9999 13.1041 25.1041 13.9999 24 13.9999C22.8959 13.9999 22.0001 13.1041 22.0001 12C22.0001 10.8959 22.8959 10.0001 24 10.0001ZM28.5 37.9999H19.5C18.394 37.9999 17.5001 37.1041 17.5001 36C17.5001 34.8959 18.394 34.0001 19.5 34.0001H22.0001V22.0001H20.5001C19.3942 22.0001 18.4999 21.104 18.4999 19.9999C18.4999 18.8961 19.3942 18 20.5001 18H24C25.106 18 25.9999 18.8961 25.9999 19.9999V34.0001H28.5C29.606 34.0001 30.4999 34.8959 30.4999 36C30.4999 37.1041 29.606 37.9999 28.5 37.9999Z" fill="#B0C1FF"/>
</svg>
