<svg width="50" height="50" viewBox="0 0 50 50" fill="none" xmlns="http://www.w3.org/2000/svg">
<path d="M44.9212 38.5728C44.9174 38.563 44.9135 38.5533 44.9094 38.5437C44.0105 36.4405 41.9025 35.6632 39.4078 36.5152L32.6043 38.3967C32.2109 37.2055 31.2298 36.1918 29.8425 35.677C29.8339 35.6738 29.8253 35.6707 29.8166 35.6678L22.338 33.1295C21.7155 32.3249 19.7657 30.2661 16.115 30.2661C13.5638 30.2661 11.3068 32.0163 10.0156 33.924H0.976562C0.437207 33.924 0 34.3612 0 34.9006V47.2128C0 47.7521 0.437207 48.1894 0.976562 48.1894H6.78291C7.32227 48.1894 7.75947 47.7521 7.75947 47.2128V46.3696H10.4824C11.0218 46.3696 11.459 45.9324 11.459 45.3931V45.112C13.0463 45.2505 13.5684 45.5516 15.0262 46.3922C16.1473 47.0387 17.8417 48.0157 20.8931 49.3877C20.9072 49.394 20.9216 49.4001 20.9359 49.4058C21.5216 49.6361 22.6664 49.998 24.0778 49.998C25.0603 49.998 26.1721 49.8226 27.3133 49.3053L42.3515 43.9209C42.3782 43.9113 42.4046 43.9006 42.4304 43.8887C43.8676 43.2274 46.0093 41.3639 44.9212 38.5728ZM5.80635 46.2361H1.95312V35.8771H5.80635V46.2361ZM9.50586 44.4164H7.75947V35.8771H9.50586V44.4164ZM41.65 42.0974L26.6186 47.4793C26.6054 47.484 26.5875 47.491 26.5745 47.4963C26.5613 47.5017 26.5481 47.5073 26.5352 47.5133C24.4417 48.4754 22.4518 47.8994 21.6719 47.5962C18.7244 46.2699 17.1513 45.3628 16.0019 44.7C14.4038 43.7785 13.6338 43.3344 11.459 43.1548V35.2894C12.3847 33.7722 14.1798 32.2191 16.1151 32.2191C19.4341 32.2191 20.8404 34.3778 20.8957 34.4649C21.0149 34.6589 21.1982 34.8051 21.4138 34.8782L29.175 37.5124C30.4146 37.9776 31.0696 39.0392 30.7686 40.0978C30.6296 40.5866 30.3085 40.9921 29.8645 41.2395C29.4244 41.4847 28.9156 41.5453 28.4307 41.4111L19.6813 38.6385C19.1669 38.4755 18.6183 38.7603 18.4554 39.2744C18.2924 39.7886 18.5771 40.3374 19.0913 40.5004L27.8559 43.2778C27.8651 43.2808 27.8744 43.2836 27.8838 43.2862C28.2337 43.3857 28.5899 43.435 28.944 43.435C29.5923 43.435 30.2334 43.2698 30.8152 42.9456C31.7149 42.4443 32.3655 41.6227 32.6472 40.6319C32.6696 40.5528 32.6896 40.4737 32.7068 40.3946L40.0392 38.3634C41.0981 38.0017 42.4883 37.8713 43.1072 39.2968C43.7479 40.9703 42.0828 41.8909 41.65 42.0974Z" fill="#644BEC"/>
<path d="M49.0224 3.30935H43.216C42.6767 3.30935 42.2395 3.74656 42.2395 4.28591V5.12908H39.5165C38.9772 5.12908 38.54 5.56628 38.54 6.10564V6.38669C36.9527 6.24812 36.4306 5.94714 34.9729 5.10652C33.8518 4.46003 32.1573 3.48298 29.1059 2.11101C29.0917 2.10457 29.0775 2.09861 29.0629 2.09294C28.0697 1.70212 25.4664 0.933179 22.6861 2.19324L18.7564 3.60027L15.444 0.287964C15.0626 -0.0933838 14.4443 -0.0933838 14.0629 0.287964L3.18811 11.1627C2.83635 11.5145 2.76887 12.1246 3.18811 12.5438L21.7708 31.1265C22.0682 31.424 22.7645 31.5139 23.152 31.1265L33.0802 21.1984C33.3383 21.2207 33.6062 21.2327 33.8838 21.2327C36.4352 21.2327 38.692 19.4825 39.9831 17.5749H49.0224C49.5617 17.5749 49.999 17.1377 49.999 16.5983V4.28591C49.999 3.74656 49.5617 3.30935 49.0224 3.30935ZM14.7533 2.35955L16.9791 4.58533C16.3175 4.99451 15.5526 5.21345 14.7533 5.21345C13.954 5.21345 13.1892 4.9946 12.5276 4.58533L14.7533 2.35955ZM7.48557 14.0791L5.25979 11.8532L7.48557 9.62742C7.89475 10.289 8.1137 11.054 8.1137 11.8532C8.1137 12.6524 7.89485 13.4174 7.48557 14.0791ZM22.4615 29.0549L20.2361 26.8295C21.5948 25.991 23.328 25.991 24.6867 26.8295L22.4615 29.0549ZM26.0938 25.4226C23.9358 23.8572 20.9871 23.8572 18.8291 25.4226L8.89251 15.4859C9.6551 14.4371 10.0668 13.1772 10.0668 11.8532C10.0668 10.5291 9.6552 9.26931 8.89251 8.22048L11.1207 5.99236C12.1696 6.75496 13.4293 7.16668 14.7534 7.16668C16.0776 7.16668 17.3373 6.75496 18.3862 5.99236L20.4984 8.10457C20.0426 8.17185 19.5982 8.32205 19.1837 8.553C18.4837 8.94304 17.9345 9.52712 17.5925 10.2338C16.4909 10.4378 15.4711 10.9711 14.6711 11.771C12.5007 13.9415 12.5007 17.473 14.6712 19.6435C15.7564 20.7287 17.1819 21.2714 18.6074 21.2714C20.0329 21.2714 21.4585 20.7288 22.5438 19.6435C23.2498 18.9375 23.7445 18.0697 23.9922 17.124L27.2895 18.243C26.9183 19.9626 27.2985 21.7716 28.324 23.1925L26.0938 25.4226ZM20.1565 15.8218C20.1651 15.8249 20.1737 15.828 20.1824 15.8309L22.1351 16.4937C21.9876 17.1593 21.6539 17.7712 21.1627 18.2625C19.7537 19.6713 17.4612 19.6715 16.0524 18.2625C14.6434 16.8536 14.6434 14.5611 16.0524 13.1521C16.3922 12.8121 16.7933 12.5464 17.2303 12.3662C17.4106 13.8664 18.4907 15.2036 20.1565 15.8218ZM29.7311 21.7852C29.3541 21.171 29.1408 20.4699 29.1072 19.7544C29.5749 20.0926 30.1466 20.4239 30.8294 20.6869L29.7311 21.7852ZM38.5399 16.209C37.6143 17.7263 35.8192 19.2794 33.8838 19.2794C33.5217 19.2794 33.1824 19.2536 32.8651 19.2077C32.8638 19.2075 32.8625 19.2073 32.8613 19.2071C30.7523 18.9008 29.6178 17.7021 29.2439 17.2275C29.224 17.1982 29.1391 17.0872 29.1265 17.0687C29.0127 16.8654 28.8262 16.7019 28.5883 16.6212L20.8239 13.9859C19.5848 13.5209 18.9298 12.4598 19.23 11.4016C19.2302 11.401 19.2304 11.4003 19.2306 11.3996C19.2309 11.3988 19.2311 11.3979 19.2313 11.3971C19.3708 10.9098 19.6913 10.5056 20.1343 10.2589C20.5743 10.0136 21.083 9.95281 21.5682 10.0873L30.3175 12.8598C30.8318 13.023 31.3806 12.7381 31.5435 12.2239C31.7064 11.7097 31.4217 11.1609 30.9075 10.9979L23.949 8.79285L23.8883 8.7321C23.8877 8.73152 23.8871 8.73083 23.8865 8.73025L20.2839 5.12771L23.3804 4.01892C23.3908 4.01511 23.4037 4.01033 23.4141 4.00613C23.4167 4.00505 23.4218 4.0031 23.4243 4.00203C23.4376 3.99666 23.4507 3.99099 23.4637 3.98503C25.5571 3.02292 27.5469 3.5988 28.3269 3.90212C31.2744 5.22839 32.8477 6.13552 33.9971 6.79832C35.5951 7.7199 36.3652 8.16394 38.5399 8.34353V16.209ZM42.2395 15.6216H40.4931V7.0822H42.2395V15.6216ZM48.0458 15.6216H44.1926V5.26248H48.0458V15.6216Z" fill="#644BEC"/>
</svg>
