<svg width="48" height="42" viewBox="0 0 48 42" fill="none" xmlns="http://www.w3.org/2000/svg">
<path d="M47.5776 36.9436L26.5185 2.01905C25.9863 1.1364 25.0307 0.59668 23.9999 0.59668C22.9691 0.59668 22.0135 1.1363 21.4813 2.01905L0.422433 36.9436C-0.125255 37.852 -0.141473 38.985 0.380152 39.9085C0.901777 40.8321 1.88025 41.4032 2.94093 41.4032H45.059C46.1197 41.4032 47.0981 40.832 47.6197 39.9085C48.1414 38.9849 48.1252 37.852 47.5776 36.9436ZM24.0156 12.6775C25.2251 12.6775 26.2485 13.3598 26.2485 14.5692C26.2485 18.2595 25.8143 23.5625 25.8143 27.2528C25.8143 28.2142 24.7599 28.6172 24.0156 28.6172C23.0234 28.6172 22.186 28.2141 22.186 27.2528C22.186 23.5625 21.752 18.2595 21.752 14.5692C21.752 13.3598 22.7442 12.6775 24.0156 12.6775ZM24.0467 35.5329C22.6822 35.5329 21.6588 34.4165 21.6588 33.1451C21.6588 31.8426 22.6821 30.7573 24.0467 30.7573C25.3181 30.7573 26.4036 31.8426 26.4036 33.1451C26.4036 34.4165 25.3181 35.5329 24.0467 35.5329Z" fill="#F79A38"/>
</svg>
