<svg width="50" height="50" viewBox="0 0 50 50" fill="none" xmlns="http://www.w3.org/2000/svg">
<path d="M45.3125 1.5625H9.375C7.92511 1.56415 6.53507 2.14086 5.50984 3.16609C4.48461 4.19132 3.9079 5.58136 3.90625 7.03125V44.5312C3.90749 45.5669 4.31944 46.5597 5.05173 47.292C5.78403 48.0243 6.77688 48.4363 7.8125 48.4375H45.3125C45.5197 48.4375 45.7184 48.3552 45.8649 48.2087C46.0114 48.0622 46.0938 47.8634 46.0938 47.6562V2.34375C46.0938 2.13655 46.0114 1.93784 45.8649 1.79132C45.7184 1.64481 45.5197 1.5625 45.3125 1.5625ZM10.1562 29.6875H44.5312V40.625H10.1562V29.6875ZM44.5312 3.125V28.125H10.1562V3.125H44.5312ZM5.46875 15.2242V14.0625C5.4552 13.8538 5.48632 13.6446 5.56005 13.4489C5.63378 13.2532 5.74842 13.0754 5.8963 12.9276C6.04419 12.7797 6.22192 12.665 6.41764 12.5913C6.61335 12.5176 6.82255 12.4864 7.03125 12.5V10.9375C6.48646 10.9287 5.9485 11.0597 5.46875 11.318V7.03125C5.46989 6.13109 5.78132 5.25884 6.35056 4.56152C6.9198 3.8642 7.71204 3.38445 8.59375 3.20312V40.625H7.8125C6.96448 40.6279 6.14093 40.9095 5.46875 41.4266V17.9688C5.4552 17.76 5.48632 17.5509 5.56005 17.3551C5.63378 17.1594 5.74842 16.9817 5.8963 16.8338C6.04419 16.6859 6.22192 16.5713 6.41764 16.4976C6.61335 16.4238 6.82255 16.3927 7.03125 16.4062V14.8438C6.48646 14.8349 5.9485 14.9659 5.46875 15.2242ZM7.8125 46.875C7.1909 46.875 6.59476 46.6281 6.15522 46.1885C5.71568 45.749 5.46875 45.1529 5.46875 44.5312C5.46875 43.9096 5.71568 43.3135 6.15522 42.874C6.59476 42.4344 7.1909 42.1875 7.8125 42.1875H44.5312V43.75H7.03125V45.3125H44.5312V46.875H7.8125Z" fill="#644BEC"/>
<path d="M20.3125 9.375C16.35 9.375 15.7344 16.2695 15.6414 18.75H14.0625V20.3125H23.4758C23.6258 22.1508 24.3758 26.5625 28.125 26.5625C31.8742 26.5625 32.6242 22.1508 32.7742 20.3125H35.9773C36.1766 22.2656 37.1398 25 39.8422 25V23.4375C38.1891 23.4375 37.7039 21.4516 37.5602 20.3125H39.8438V18.75H37.4813C37.3953 16.775 36.918 12.5 34.375 12.5C31.832 12.5 31.3547 16.775 31.2687 18.75H24.9836C24.8906 16.2695 24.275 9.375 20.3125 9.375ZM28.125 25C25.7641 25 25.1883 21.8211 25.0469 20.3125H31.2047C31.0656 21.8211 30.4945 25 28.125 25ZM34.375 14.0625C35.2016 14.0625 35.8031 16.3977 35.9164 18.75H32.8344C32.9438 16.6133 33.4813 14.0625 34.375 14.0625ZM17.2078 18.75C17.3227 16.0938 18.0141 10.9375 20.3125 10.9375C22.6109 10.9375 23.3008 16.0938 23.4172 18.75H17.2078Z" fill="#644BEC"/>
<path d="M26.3352 10.7087L30.2414 6.80244L29.1367 5.69775L27.7359 7.09854L26.3352 5.69775L25.2305 6.80244L26.6312 8.20322L25.2305 9.604L26.3352 10.7087Z" fill="#644BEC"/>
<path d="M31.25 6.25H34.375V7.8125H31.25V6.25Z" fill="#644BEC"/>
<path d="M31.25 9.375H34.375V10.9375H31.25V9.375Z" fill="#644BEC"/>
<path d="M40.625 6.25H37.5V4.6875H35.9375V10.9375H40.625V6.25ZM39.0625 9.375H37.5V7.8125H39.0625V9.375Z" fill="#644BEC"/>
<path d="M16.6367 22.104L15.6266 23.1142L14.6164 22.104L13.5117 23.2087L14.5219 24.2188L13.5117 25.229L14.6164 26.3337L15.6266 25.3235L16.6367 26.3337L17.7414 25.229L16.7313 24.2188L17.7414 23.2087L16.6367 22.104Z" fill="#644BEC"/>
<path d="M19.5312 21.875H22.6562V23.4375H19.5312V21.875Z" fill="#644BEC"/>
<path d="M19.5312 25H22.6562V26.5625H19.5312V25Z" fill="#644BEC"/>
<path d="M13.2812 12.5H14.8438V7.8125H21.875V6.25H14.8438V4.6875H13.2812V6.25H11.7188V7.8125H13.2812V12.5Z" fill="#644BEC"/>
<path d="M39.0625 15.625H40.625V17.1875H39.0625V15.625Z" fill="#644BEC"/>
<path d="M41.4062 12.5H42.9688V14.0625H41.4062V12.5Z" fill="#644BEC"/>
<path d="M14.8438 39.0625H39.8438V31.25H14.8438V39.0625ZM16.4062 32.8125H38.2812V37.5H16.4062V32.8125Z" fill="#644BEC"/>
<path d="M11.7188 31.25H13.2812V32.8125H11.7188V31.25Z" fill="#644BEC"/>
<path d="M11.7188 37.5H13.2812V39.0625H11.7188V37.5Z" fill="#644BEC"/>
<path d="M41.4062 31.25H42.9688V32.8125H41.4062V31.25Z" fill="#644BEC"/>
<path d="M41.4062 37.5H42.9688V39.0625H41.4062V37.5Z" fill="#644BEC"/>
</svg>
