<svg width="14" height="14" xmlns="http://www.w3.org/2000/svg"><path d="M2.05 2.05c.422-.422 1.086-.422 1.574-.079l.534.376a.214.214 0 00.229.003 5.3 5.3 0 011.173-.487.213.213 0 00.16-.162l.111-.644C5.933.469 6.403 0 7 0c.597 0 1.067.469 1.169 1.057l.112.644c.014.08.08.14.159.162a5.3 5.3 0 011.173.487c.072.04.161.045.229-.003l.534-.376c.488-.343 1.152-.343 1.574.08.422.421.422 1.085.079 1.573l-.376.534a.214.214 0 00-.003.229c.207.366.371.76.487 1.173.022.08.081.145.162.16l.645.111C13.53 5.933 14 6.403 14 7c0 .597-.469 1.067-1.056 1.169l-.645.112a.213.213 0 00-.162.159 5.3 5.3 0 01-.487 1.173.214.214 0 00.003.229l.376.534c.343.488.343 1.152-.08 1.574-.421.422-1.085.422-1.573.079l-.534-.376a.214.214 0 00-.229-.003 5.3 5.3 0 01-1.173.487.213.213 0 00-.16.162l-.111.645C8.067 13.53 7.597 14 7 14c-.597 0-1.067-.469-1.169-1.056l-.112-.645a.213.213 0 00-.159-.162 5.3 5.3 0 01-1.173-.487.214.214 0 00-.229.003l-.534.376c-.488.343-1.152.343-1.574-.08-.422-.421-.422-1.085-.079-1.573l.376-.534a.214.214 0 00.003-.229 5.3 5.3 0 01-.487-1.173.213.213 0 00-.162-.16l-.644-.111C.469 8.067 0 7.597 0 7c0-.597.469-1.067 1.056-1.169l.645-.112a.213.213 0 00.162-.159c.116-.413.28-.807.487-1.173a.214.214 0 00-.003-.229l-.376-.534c-.343-.488-.343-1.152.08-1.574zM9.667 7a2.667 2.667 0 11-5.334 0 2.667 2.667 0 015.334 0z" fill="#FFF" fill-rule="evenodd"/></svg>