<svg width="43" height="43" viewBox="0 0 43 43" fill="none" xmlns="http://www.w3.org/2000/svg">
<g opacity="0.5">
<path d="M0 2.92676V26.3317C0 29.3257 2.44928 31.775 5.4433 31.775H19.4738C18.1536 29.974 17.4177 27.7934 17.4177 25.5158C17.4177 19.6633 22.179 14.902 28.0315 14.902C33.884 14.902 38.6454 19.6633 38.6454 25.5158C38.6454 27.7765 37.9078 29.969 36.5851 31.775H37.5567C40.5507 31.775 43 29.3257 43 26.3317V2.92676H0ZM14.6965 18.4391H6.53197V15.7179H14.6965V18.4391ZM22.3163 11.9072H6.53197V9.18593H22.3163V11.9072Z" fill="url(#paint0_linear)"/>
<path d="M35.9258 25.5149C35.9258 21.156 32.3937 17.6223 28.0332 17.6223C23.6727 17.6223 20.1406 21.156 20.1406 25.5149C20.1406 27.9347 21.2318 30.0969 22.9452 31.5442L20.4404 38.141L23.5641 37.5811L25.5284 40.0733L28.0601 33.4058C28.141 33.4058 28.2193 33.3965 28.2993 33.394L30.8361 40.0733L32.8004 37.5811L35.9241 38.141L33.3418 31.3413C34.9264 29.899 35.9258 27.8261 35.9258 25.5149ZM28.0332 29.0528C26.079 29.0528 24.4953 27.4691 24.4953 25.5149C24.4953 23.5607 26.079 21.977 28.0332 21.977C29.9874 21.977 31.5711 23.5607 31.5711 25.5149C31.5711 27.4691 29.9874 29.0528 28.0332 29.0528Z" fill="url(#paint1_linear)"/>
</g>
<defs>
<linearGradient id="paint0_linear" x1="21.5" y1="2.92676" x2="21.5" y2="31.775" gradientUnits="userSpaceOnUse">
<stop stop-color="#644BEC"/>
<stop offset="1" stop-color="#AF48C9"/>
</linearGradient>
<linearGradient id="paint1_linear" x1="28.0332" y1="17.6223" x2="28.0332" y2="40.0733" gradientUnits="userSpaceOnUse">
<stop stop-color="#644BEC"/>
<stop offset="1" stop-color="#AF48C9"/>
</linearGradient>
</defs>
</svg>
