<svg width="24" height="24" viewBox="0 0 24 24" fill="none" xmlns="http://www.w3.org/2000/svg">
<path d="M12 0C5.38331 0 0 5.38331 0 12C0 18.6167 5.38331 24 12 24C18.6167 24 24 18.6167 24 12C24 5.38331 18.6167 0 12 0ZM16.8534 15.4394C17.0488 15.6346 17.0488 15.9512 16.8534 16.1465L16.1466 16.8534C15.9512 17.0487 15.6347 17.0487 15.4394 16.8534L12 13.4141L8.56059 16.8535C8.36527 17.0487 8.04877 17.0487 7.85344 16.8535L7.14652 16.1465C6.95119 15.9513 6.95119 15.6347 7.14652 15.4394L10.5859 12L7.14652 8.56055C6.95119 8.36531 6.95119 8.04872 7.14652 7.85344L7.85344 7.14647C8.04877 6.95123 8.36527 6.95123 8.56059 7.14647L12 10.5859L15.4394 7.14647C15.6347 6.95123 15.9512 6.95123 16.1466 7.14647L16.8535 7.85344C17.0488 8.04867 17.0488 8.36527 16.8535 8.56055L13.4141 12L16.8534 15.4394Z" fill="#CFD8F5"/>
</svg>
