<svg width="26" height="22" viewBox="0 0 26 22" fill="none" xmlns="http://www.w3.org/2000/svg">
<path d="M0.688376 10.4676L6.436 12.6108L8.67658 19.8196C8.774 20.3067 9.3585 20.4041 9.74817 20.1119L12.9629 17.4816C13.2552 17.1894 13.7423 17.1894 14.1319 17.4816L19.8795 21.6705C20.2692 21.9628 20.8537 21.768 20.9511 21.2809L25.2375 0.823319C25.3349 0.336235 24.8478 -0.150846 24.3607 0.0439882L0.688376 9.20118C0.103875 9.39602 0.103875 10.2728 0.688376 10.4676ZM8.38434 11.5392L19.6847 4.62258C19.8795 4.52517 20.0744 4.81742 19.8795 4.91484L10.6249 13.5849C10.3327 13.8772 10.0404 14.2669 10.0404 14.7539L9.74817 17.092C9.74817 17.3842 9.26108 17.4816 9.16366 17.092L7.99465 12.8056C7.7024 12.3185 7.89725 11.734 8.38434 11.5392Z" fill="white"/>
</svg>
