<svg width="19" height="18" viewBox="0 0 19 18" fill="none" xmlns="http://www.w3.org/2000/svg">
<path fill-rule="evenodd" clip-rule="evenodd" d="M16.2676 0.818078L1.31809 15.7676C0.955273 16.1304 0.97769 16.7411 1.36824 17.1317C1.75877 17.5222 2.36949 17.5446 2.7323 17.1818L17.6818 2.23229C18.0447 1.8694 18.0222 1.25875 17.6317 0.868212C17.2412 0.477698 16.6305 0.45519 16.2676 0.818078Z" fill="#1F2D48"/>
<path fill-rule="evenodd" clip-rule="evenodd" d="M17.6819 15.7676L2.73239 0.818087C2.36958 0.455273 1.75885 0.477727 1.36833 0.86824C0.977819 1.25875 0.955366 1.86949 1.31818 2.2323L16.2677 17.1818C16.6306 17.5447 17.2413 17.5222 17.6318 17.1317C18.0223 16.7412 18.0448 16.1305 17.6819 15.7676Z" fill="#1F2D48"/>
</svg>
