<svg width="23" height="20" viewBox="0 0 23 20" fill="none" xmlns="http://www.w3.org/2000/svg">
<path fill-rule="evenodd" clip-rule="evenodd" d="M22.0709 9H0.929074C0.415977 9 0 9.44768 0 10C0 10.5523 0.415977 11 0.929074 11H22.0709C22.5841 11 23 10.5523 23 10C23 9.44773 22.5841 9 22.0709 9Z" fill="#1F2D48"/>
<path fill-rule="evenodd" clip-rule="evenodd" d="M22.0709 0H0.929074C0.415977 0 0 0.447732 0 1C0 1.55227 0.415977 2 0.929074 2H22.0709C22.5841 2 23 1.55227 23 1C23 0.447732 22.5841 0 22.0709 0Z" fill="#1F2D48"/>
<path fill-rule="evenodd" clip-rule="evenodd" d="M22.0709 18H0.929074C0.415977 18 0 18.4477 0 19C0 19.5523 0.415977 20 0.929074 20H22.0709C22.5841 20 23 19.5523 23 19C23 18.4477 22.5841 18 22.0709 18Z" fill="#1F2D48"/>
</svg>
