<svg width="21" height="32" viewBox="0 0 21 32" fill="none" xmlns="http://www.w3.org/2000/svg">
<path d="M21 25.3333V6.66667C21 2.92871 16.388 0 10.5 0C4.61201 0 0 2.92871 0 6.66667L0 25.3333C0 29.0713 4.61201 32 10.5 32C16.388 32 21 29.0713 21 25.3333ZM18.375 20.89C16.4652 19.5215 13.6717 18.6667 10.5 18.6667C7.32834 18.6667 4.53479 19.5215 2.625 20.89L2.625 11.11C4.53479 12.4785 7.32834 13.3333 10.5 13.3333C13.6717 13.3333 16.4652 12.4785 18.375 11.11V20.89ZM10.5 2.66667C15.1409 2.66667 18.375 4.77474 18.375 6.66667C18.375 8.55859 15.1409 10.6667 10.5 10.6667C5.85915 10.6667 2.625 8.55859 2.625 6.66667C2.625 4.77474 5.85915 2.66667 10.5 2.66667ZM10.5 29.3333C5.85915 29.3333 2.625 27.2253 2.625 25.3333C2.625 23.4414 5.85915 21.3333 10.5 21.3333C15.1409 21.3333 18.375 23.4414 18.375 25.3333C18.375 27.2253 15.1409 29.3333 10.5 29.3333Z" fill="#644BEC"/>
</svg>
