<svg width="32" height="32" viewBox="0 0 32 32" fill="none" xmlns="http://www.w3.org/2000/svg">
<path d="M16 0C7.17741 0 0 7.17806 0 16C0 24.8219 7.17741 32 16 32C24.8226 32 32 24.8219 32 16C32 7.17806 24.8226 0 16 0ZM16 2.66667C21.4854 2.66667 26.2041 5.99805 28.2487 10.7419C25.36 9.04395 21.0215 8 16 8C10.9785 8 6.63997 9.04395 3.7513 10.7419C5.7959 5.99805 10.5146 2.66667 16 2.66667ZM16 21.3333C8.36882 21.3333 2.66667 18.5173 2.66667 16C2.66667 13.4827 8.36882 10.6667 16 10.6667C23.6312 10.6667 29.3333 13.4827 29.3333 16C29.3333 18.5173 23.6312 21.3333 16 21.3333ZM16 29.3333C10.5146 29.3333 5.7959 26.002 3.7513 21.2581C6.63997 22.9561 10.9785 24 16 24C21.0215 24 25.36 22.9561 28.2487 21.2581C26.2041 26.002 21.4854 29.3333 16 29.3333Z" fill="#644BEC"/>
</svg>
