<svg width="32" height="22" viewBox="0 0 32 22" fill="none" xmlns="http://www.w3.org/2000/svg">
<path d="M31.8047 10.5288L21.8047 0.528833C21.6133 0.338708 21.3288 0.280771 21.0781 0.384271C20.8288 0.487146 20.6667 0.730646 20.6667 1.00015V2.33346C20.6667 2.51052 20.737 2.67983 20.862 2.80483L27.724 9.66683H0.666687C0.298187 9.6669 0 9.96502 0 10.3335V11.6668C0 12.0353 0.298187 12.3335 0.666687 12.3335H27.724L20.862 19.1955C20.737 19.3205 20.6667 19.4898 20.6667 19.6669V21.0002C20.6667 21.2698 20.8288 21.5132 21.0781 21.6161C21.1608 21.6506 21.2474 21.6669 21.3333 21.6669C21.5065 21.6669 21.6771 21.5992 21.8047 21.4716L31.8047 11.4716C32.0651 11.2111 32.0651 10.7893 31.8047 10.5288Z" fill="#CFD8F5"/>
</svg>
