<svg width="24" height="24" viewBox="0 0 24 24" fill="none" xmlns="http://www.w3.org/2000/svg">
<path d="M24 12C24 5.36774 18.633 0 12 0C5.36774 0 0 5.367 0 12C0 18.5735 5.32214 24 12 24C18.6504 24 24 18.6037 24 12ZM12 1.40625C17.8414 1.40625 22.5938 6.15857 22.5938 12C22.5938 14.1368 21.9582 16.1907 20.7795 17.9304C16.0466 12.8394 7.96198 12.8302 3.22046 17.9304C2.04181 16.1907 1.40625 14.1368 1.40625 12C1.40625 6.15857 6.15857 1.40625 12 1.40625ZM4.09753 19.0547C8.30566 14.3346 15.6954 14.3357 19.9023 19.0547C15.6801 23.7784 8.32159 23.7799 4.09753 19.0547Z" fill="#644BEC"/>
<path d="M12 13C14.2056 13 16 11.0774 16 8.71429V7.28571C16 4.92262 14.2056 3 12 3C9.79444 3 8 4.92262 8 7.28571V8.71429C8 11.0774 9.79444 13 12 13ZM9.33333 7.28571C9.33333 5.71019 10.5295 4.42857 12 4.42857C13.4705 4.42857 14.6667 5.71019 14.6667 7.28571V8.71429C14.6667 10.2898 13.4705 11.5714 12 11.5714C10.5295 11.5714 9.33333 10.2898 9.33333 8.71429V7.28571Z" fill="#644BEC"/>
</svg>
