<svg width="50" height="50" viewBox="0 0 50 50" fill="none" xmlns="http://www.w3.org/2000/svg">
<g clip-path="url(#clip0)">
<path d="M48.8918 8.43181L25.5668 0.0984787C25.1985 -0.0315242 24.7968 -0.0315242 24.4285 0.0984787L1.10931 8.43181C0.448377 8.67005 0.0078125 9.29717 0.0078125 9.99973C0.0078125 10.7023 0.448377 11.3294 1.10931 11.5676L12.501 15.6376V20.8335C12.501 24.0735 23.7218 24.1668 25.001 24.1668C26.2801 24.1668 37.501 24.0735 37.501 20.8335V15.6376L40.001 14.7501V16.6668C40.001 17.5873 40.7472 18.3335 41.6676 18.3335H43.3343C44.2548 18.3335 45.001 17.5873 45.001 16.6668V14.1668C44.9985 13.7809 44.9054 13.401 44.7293 13.0576L48.896 11.5676C49.5569 11.3294 49.9975 10.7023 49.9975 9.99973C49.9975 9.29717 49.5569 8.67005 48.896 8.43181H48.8918ZM35.8343 19.0001C32.6601 17.5551 25.9718 17.5001 25.001 17.5001C24.0301 17.5001 17.3418 17.5551 14.1676 19.0001V11.7401C14.6676 11.0985 18.5976 10.0001 25.001 10.0001C31.4043 10.0001 35.3343 11.0985 35.8343 11.7401V19.0001ZM25.001 22.5001C18.8343 22.5001 14.9618 21.4818 14.2376 20.8335C14.9618 20.1851 18.836 19.1668 25.001 19.1668C31.166 19.1668 35.0401 20.1851 35.7643 20.8335C35.0401 21.4818 31.1676 22.5001 25.001 22.5001ZM40.3918 12.8376L37.501 13.8685V11.6668C37.501 8.42681 26.2801 8.33348 25.001 8.33348C23.7218 8.33348 12.501 8.42681 12.501 11.6668V13.8676L1.66764 10.0001L25.0126 1.66681L41.6676 7.61848V11.8201C41.1407 12.0074 40.6916 12.3656 40.3918 12.8376ZM43.3343 16.6668H41.6676V14.1668C41.6676 13.7066 42.0407 13.3335 42.501 13.3335C42.9612 13.3335 43.3343 13.7066 43.3343 14.1668V16.6668ZM43.3343 11.7868V8.21431L48.3343 10.0001L43.3343 11.7868Z" fill="#AF48C9"/>
<path d="M47.5 25.8335C47.45 25.8334 47.4 25.8378 47.3508 25.8468C39.9569 26.9964 32.4826 27.5493 25 27.5002C17.5174 27.5493 10.0431 26.9964 2.64917 25.8468C2.59988 25.8384 2.55 25.834 2.5 25.8335C1.91667 25.8335 0 26.4943 0 35.0002C0 43.506 1.91667 44.1668 2.5 44.1668C2.55004 44.1658 2.59992 44.1608 2.64917 44.1518C8.33058 43.2519 14.0653 42.7291 19.8158 42.5868L18.1892 46.4885C17.9392 47.1132 18.0912 47.827 18.5739 48.2958C19.0565 48.7646 19.7745 48.8957 20.3917 48.6277L21.0292 48.3552L21.305 48.9893C21.5655 49.6042 22.1697 50.0027 22.8375 50.0002H22.8583C23.5312 49.9949 24.1343 49.5842 24.3858 48.9602L25.8333 45.4952L27.2758 48.9468C27.5251 49.5768 28.1309 49.9932 28.8083 50.0002H28.8333C29.4966 50.0029 30.0975 49.6093 30.36 49.0002L30.6383 48.361L31.2658 48.6302C31.8857 48.9038 32.6096 48.7734 33.0951 48.3008C33.5806 47.8281 33.7303 47.108 33.4733 46.481L31.8783 42.656C37.063 42.8396 42.2316 43.3405 47.355 44.156C47.4029 44.1639 47.4514 44.1676 47.5 44.1668C48.0833 44.1668 50 43.506 50 35.0002C50 26.4943 48.0833 25.8335 47.5 25.8335ZM27.6667 29.1418C28.0127 30.4143 28.2143 31.7217 28.2675 33.0393C26.378 32.1607 24.1619 32.3667 22.4667 33.5785C22.424 32.082 22.2323 30.5936 21.8942 29.1352C22.9036 29.1563 23.9389 29.1668 25 29.1668C25.9108 29.1668 26.795 29.1568 27.6667 29.1418ZM25.8333 42.5002C23.5321 42.5002 21.6667 40.6347 21.6667 38.3335C21.6667 36.0323 23.5321 34.1668 25.8333 34.1668C28.1345 34.1668 30 36.0323 30 38.3335C29.9972 40.6335 28.1334 42.4974 25.8333 42.5002ZM2.5 27.9168C3.13851 30.2214 3.41956 32.6103 3.33333 35.0002C3.41956 37.39 3.13851 39.7789 2.5 42.0835C1.86149 39.7789 1.58044 37.39 1.66667 35.0002C1.58044 32.6103 1.86149 30.2214 2.5 27.9168ZM4.18333 42.2252C4.63917 40.9035 5 38.6918 5 35.0002C5 31.3085 4.63917 29.0968 4.1825 27.7735C9.47799 28.5048 14.8096 28.9452 20.1533 29.0927C20.6532 31.0207 20.882 33.009 20.8333 35.0002C20.8333 35.121 20.8333 35.236 20.8283 35.3518C19.8283 37.0115 19.7275 39.0621 20.56 40.8118L20.5233 40.9002C15.056 41.0342 9.60065 41.4771 4.18333 42.2268V42.2252ZM22.8392 48.3335L22.2308 46.9335C22.0479 46.5131 21.5597 46.3195 21.1383 46.5002L19.7358 47.1202L21.69 42.4352C22.4923 43.2481 23.5158 43.8074 24.6333 44.0435L22.8392 48.3335ZM30.5283 46.5002C30.107 46.3195 29.6188 46.5131 29.4358 46.9335L28.8192 48.3193L27.0325 44.0418C28.1509 43.8057 29.1753 43.2461 29.9783 42.4327L31.9283 47.0993L30.5283 46.5002ZM47.3333 42.4585C41.9794 41.6345 36.5808 41.1336 31.1667 40.9585L31.1075 40.8152C32.1555 38.6068 31.7062 35.9784 29.9842 34.2435C29.9777 32.5153 29.7781 30.7932 29.3892 29.1093C35.3982 28.9748 41.3921 28.4509 47.3333 27.541C47.72 28.1977 48.3333 30.7952 48.3333 35.0002C48.3333 39.2052 47.7158 41.8018 47.3333 42.4585Z" fill="#AF48C9"/>
</g>
<defs>
<clipPath id="clip0">
<rect width="50" height="50" fill="white"/>
</clipPath>
</defs>
</svg>
