<svg width="18" height="18" viewBox="0 0 18 18" fill="none" xmlns="http://www.w3.org/2000/svg">
<path d="M2.4 8.99999C2.4 8.50294 1.99706 8.09999 1.5 8.09999C1.00294 8.09999 0.6 8.50294 0.6 8.99999H2.4ZM3.69672 3.69667L3.06033 3.06027L3.06033 3.06027L3.69672 3.69667ZM2.8934 4.49999H1.9934C1.9934 4.99705 2.39634 5.39999 2.8934 5.39999V4.49999ZM3.7934 1.125C3.7934 0.627944 3.39045 0.225 2.8934 0.225C2.39634 0.225 1.9934 0.627944 1.9934 1.125H3.7934ZM6.27005 5.39999C6.7671 5.39999 7.17005 4.99705 7.17005 4.49999C7.17005 4.00294 6.7671 3.59999 6.27005 3.59999V5.39999ZM15.6 8.99999C15.6 12.6451 12.6451 15.6 9 15.6V17.4C13.6392 17.4 17.4 13.6392 17.4 8.99999H15.6ZM9 15.6C5.35492 15.6 2.4 12.6451 2.4 8.99999H0.6C0.6 13.6392 4.36081 17.4 9 17.4V15.6ZM9 2.39999C12.6451 2.39999 15.6 5.35491 15.6 8.99999H17.4C17.4 4.3608 13.6392 0.599994 9 0.599994V2.39999ZM4.33312 4.33307C5.52846 3.13773 7.17722 2.39999 9 2.39999V0.599994C6.68067 0.599994 4.57944 1.54117 3.06033 3.06027L4.33312 4.33307ZM3.06033 3.06027L2.257 3.8636L3.52979 5.13639L4.33312 4.33307L3.06033 3.06027ZM3.7934 4.49999V1.125H1.9934V4.49999H3.7934ZM2.8934 5.39999H6.27005V3.59999H2.8934V5.39999Z" fill="#AB5A04"/>
<path d="M9 4.875V9L11.25 11.25" stroke="#AB5A04" stroke-width="1.8" stroke-linecap="round" stroke-linejoin="round"/>
</svg>
