<svg width="50" height="50" viewBox="0 0 50 50" fill="none" xmlns="http://www.w3.org/2000/svg">
<path d="M42.3913 0H7.60872C3.41301 0 0 3.41301 0 7.60872V31.5218C0 35.7174 3.41301 39.1304 7.60872 39.1304H31.0718L41.6218 49.6826C41.8305 49.8891 42.1088 50 42.3914 50C42.5305 50 42.6718 49.9718 42.8066 49.9174C43.2131 49.7499 43.4784 49.3521 43.4784 48.913V39.0543C47.161 38.5239 50.0001 35.3478 50.0001 31.5217V7.60872C50 3.41301 46.5869 0 42.3913 0ZM47.826 31.5217C47.826 34.5195 45.3869 36.9564 42.3913 36.9564C41.7913 36.9564 41.3043 37.4434 41.3043 38.0434V46.289L32.2912 37.2739C32.0869 37.0717 31.8108 36.9564 31.5217 36.9564H7.60872C4.61311 36.9564 2.17398 34.5194 2.17398 31.5217V7.60872C2.17398 4.61087 4.61311 2.17398 7.60872 2.17398H42.3913C45.3869 2.17398 47.826 4.61097 47.826 7.60872V31.5217Z" fill="#644BEC"/>
<path d="M24.9991 26.0869C23.2013 26.0869 21.7383 27.5499 21.7383 29.3478C21.7383 31.1456 23.2013 32.6086 24.9991 32.6086C26.797 32.6086 28.26 31.1456 28.26 29.3478C28.26 27.5499 26.797 26.0869 24.9991 26.0869ZM24.9991 30.4348C24.3991 30.4348 23.9122 29.9456 23.9122 29.3478C23.9122 28.7499 24.3991 28.2608 24.9991 28.2608C25.5991 28.2608 26.0861 28.7499 26.0861 29.3478C26.0861 29.9456 25.5991 30.4348 24.9991 30.4348Z" fill="#644BEC"/>
<path d="M28.4733 7.56107C27.8581 6.90023 26.9885 6.52197 26.0864 6.52197H23.9125C23.0103 6.52197 22.143 6.90023 21.5277 7.56107C20.9125 8.21976 20.5972 9.11324 20.6603 10.0307L21.5798 20.7415C21.7059 22.5198 23.2016 23.9132 24.9994 23.9132C26.7819 23.9132 28.2777 22.5197 28.4016 20.7588L29.3386 10.0154C29.4038 9.11548 29.0885 8.22201 28.4733 7.56107ZM27.1733 9.84368L26.2342 20.5894C26.1886 21.235 25.6451 21.7393 24.982 21.7393C24.3343 21.7393 23.7929 21.235 23.7451 20.5719L22.8276 9.8611C22.8059 9.55458 22.908 9.26324 23.1167 9.0415C23.3254 8.81976 23.608 8.69585 23.9124 8.69585H26.0864C26.3907 8.69585 26.6733 8.81976 26.882 9.0415C27.0907 9.26324 27.1929 9.55458 27.1733 9.84368Z" fill="#644BEC"/>
</svg>
