<svg width="50" height="50" viewBox="0 0 50 50" fill="none" xmlns="http://www.w3.org/2000/svg">
<g clip-path="url(#clip0)">
<path d="M49.1671 2.18173e-08C49.167 2.18173e-08 49.1668 2.18173e-08 49.1667 2.18173e-08H0.833333C0.373229 -0.000104145 0.000104167 0.372812 0 0.832917C0 0.833021 0 0.833229 0 0.833333V17.5H1.66667V1.66667H48.3333V20H19.1667V21.6667H49.1667C49.6268 21.6668 49.9999 21.2939 50 20.8337C50 20.8336 50 20.8334 50 20.8333V0.833333C50.0001 0.373229 49.6272 0.000104188 49.1671 2.18173e-08Z" fill="#644BEC"/>
<path d="M44.1667 4.1665H27.5V5.83317H44.1667V4.1665Z" fill="#644BEC"/>
<path d="M46.6667 9.1665H30V10.8332H46.6667V9.1665Z" fill="#644BEC"/>
<path d="M43.3346 14.1665H26.668V15.8332H43.3346V14.1665Z" fill="#644BEC"/>
<path d="M26.6002 7.18495C26.0297 5.8136 24.4555 5.16443 23.0843 5.73495C23.0608 5.74475 23.0375 5.75475 23.0144 5.76516L16.2573 9.27037C16.5238 8.71808 16.6636 8.11329 16.6667 7.50016C16.6667 5.19902 14.8011 3.3335 12.5 3.3335C10.1989 3.3335 8.33333 5.19902 8.33333 7.50016C8.33646 8.40464 8.63677 9.28308 9.18802 10.0002H9.15333C6.78792 10.016 4.67635 11.4865 3.84125 13.6997L1.61667 21.3674C1.08708 22.743 1.77292 24.2876 3.14865 24.8171C3.77594 25.0586 4.47125 25.0545 5.09573 24.8057C5.81323 24.5166 6.37156 23.9329 6.62854 23.2033L7.5 20.4299V32.4906C6.78292 31.9394 5.90448 31.6391 5 31.6359C2.70229 31.6325 0.836771 33.4924 0.833333 35.7902C0.831667 36.9155 1.28583 37.9934 2.0924 38.7782C0.812396 39.4321 0.00500002 40.7463 2.18173e-08 42.1836V49.1668C-0.000104145 49.6269 0.372813 50.0001 0.832917 50.0002C0.833021 50.0002 0.833229 50.0002 0.833333 50.0002H9.16667C9.62677 50.0003 9.9999 49.6274 10 49.1672C10 49.1671 10 49.1669 10 49.1668V42.1836C9.99594 41.0025 9.44719 39.8893 8.51292 39.1668H14.8205C13.8861 39.8893 13.3374 41.0025 13.3334 42.1836V49.1668C13.3333 49.6269 13.7063 50.0001 14.1664 50.0002C14.1665 50.0002 14.1667 50.0002 14.1668 50.0002H22.5001C22.9602 50.0003 23.3333 49.6274 23.3334 49.1672C23.3334 49.1671 23.3334 49.1669 23.3334 49.1668V42.1836C23.3284 40.7463 22.521 39.4321 21.241 38.7782C22.8864 37.1722 22.9183 34.5365 21.3124 32.8912C20.3234 31.878 18.8873 31.4368 17.5001 31.7202V14.673L25.1502 10.7008C26.5215 10.1304 27.1706 8.5562 26.6002 7.18495ZM12.5 5.00016C13.8807 5.00016 15 6.11943 15 7.50016C15 8.88089 13.8807 10.0002 12.5 10.0002C11.1199 9.9987 10.0015 8.88027 10 7.50016C10 6.11943 11.1193 5.00016 12.5 5.00016ZM5 33.3026C6.38073 33.3026 7.5 34.4218 7.5 35.8026C7.5 37.1833 6.38073 38.3026 5 38.3026C3.61927 38.3026 2.5 37.1833 2.5 35.8026C2.50146 34.4225 3.6199 33.3041 5 33.3026ZM8.33333 48.3335H1.66667V42.1836C1.66833 40.9783 2.6451 40.0016 3.85052 40.0002H6.14948C7.35479 40.0016 8.33167 40.9783 8.33333 42.1836V48.3335ZM21.6667 42.1836V48.3335H15V42.1836C15.0017 40.9783 15.9784 40.0016 17.1839 40.0002H19.4828C20.6882 40.0016 21.665 40.9783 21.6667 42.1836ZM18.3333 33.3026C19.7134 33.304 20.8319 34.4225 20.8333 35.8026C20.8333 37.1833 19.7141 38.3026 18.3333 38.3026C16.9526 38.3026 15.8333 37.1833 15.8333 35.8026C15.8333 34.4218 16.9526 33.3026 18.3333 33.3026ZM25.0753 8.57516C24.9638 8.86141 24.7347 9.0861 24.4463 9.19204L16.283 13.427C16.0068 13.5704 15.8333 13.8557 15.8333 14.1668V32.4906C14.2724 33.6447 13.7317 35.7336 14.5367 37.5002H13.3333V23.3335H11.6667V37.5002H8.79667C9.03375 36.9762 9.15865 36.4085 9.16354 35.8335H9.16667V15.0002C9.16656 14.5399 8.79333 14.1668 8.33313 14.1669C7.96927 14.167 7.6475 14.4032 7.53833 14.7504L5.05 22.6686C4.86146 23.1886 4.28698 23.4574 3.76698 23.2687C3.73052 23.2555 3.69479 23.2402 3.66 23.2228C3.17927 22.9743 2.97521 22.3943 3.19458 21.8995L5.41906 14.2319C6.01896 12.6913 7.4999 11.674 9.15323 11.6668H15.0538C15.1873 11.667 15.319 11.6349 15.4375 11.5733L23.72 7.27402C24.2169 7.06673 24.7896 7.27881 25.0315 7.75985C25.1597 8.01339 25.1756 8.30923 25.0753 8.57516Z" fill="#644BEC"/>
<path d="M34.5756 38.778C36.2238 37.1722 36.2582 34.5342 34.6523 32.886C33.0465 31.2377 30.4085 31.2034 28.7603 32.8092C27.112 34.415 27.0777 37.053 28.6835 38.7013C28.7088 38.7272 28.7344 38.7528 28.7604 38.778C27.4805 39.432 26.673 40.7462 26.668 42.1835V49.1667C26.6679 49.6268 27.0408 49.9999 27.5009 50C27.501 50 27.5012 50 27.5013 50H35.8346C36.2947 50.0001 36.6679 49.6272 36.668 49.1671C36.668 49.167 36.668 49.1668 36.668 49.1667V42.1835C36.663 40.7462 35.8556 39.432 34.5756 38.778ZM31.668 33.3024C33.0487 33.3024 34.168 34.4217 34.168 35.8024C34.168 37.1831 33.0487 38.3024 31.668 38.3024C30.2872 38.3024 29.168 37.1831 29.168 35.8024C29.1694 34.4223 30.2879 33.304 31.668 33.3024ZM35.0013 48.3333H28.3346V42.1835C28.3363 40.9781 29.3131 40.0015 30.5185 40H32.8174C34.0228 40.0015 34.9996 40.9781 35.0013 42.1835V48.3333Z" fill="#644BEC"/>
<path d="M47.9076 38.778C49.5558 37.1722 49.5902 34.5342 47.9844 32.886C46.3785 31.2377 43.7405 31.2034 42.0923 32.8092C40.4441 34.415 40.4097 37.053 42.0155 38.7013C42.0408 38.7272 42.0665 38.7528 42.0924 38.778C40.8125 39.432 40.005 40.7462 40 42.1835V49.1667C39.9999 49.6268 40.3728 49.9999 40.8329 50C40.833 50 40.8332 50 40.8333 50H49.1667C49.6268 50.0001 49.9999 49.6272 50 49.1671C50 49.167 50 49.1668 50 49.1667V42.1835C49.995 40.7462 49.1876 39.432 47.9076 38.778ZM45 33.3024C46.3807 33.3024 47.5 34.4217 47.5 35.8024C47.5 37.1831 46.3807 38.3024 45 38.3024C43.6193 38.3024 42.5 37.1831 42.5 35.8024C42.5015 34.4223 43.6199 33.304 45 33.3024ZM48.3333 48.3333H41.6667V42.1835C41.6683 40.9781 42.6451 40.0015 43.8505 40H46.1495C47.3548 40.0015 48.3317 40.9781 48.3333 42.1835V48.3333Z" fill="#644BEC"/>
</g>
<defs>
<clipPath id="clip0">
<rect width="50" height="50" fill="white"/>
</clipPath>
</defs>
</svg>
