<svg width="16" height="12" xmlns="http://www.w3.org/2000/svg"><g fill="#644BEC" fill-rule="nonzero"><path d="M15.667 4.667H.333C.133 4.667 0 4.8 0 5v4.667a1.65 1.65 0 001.667 1.666h12.666A1.65 1.65 0 0016 9.667V5c0-.2-.133-.333-.333-.333zM2.333 7.333H5c.2 0 .333.134.333.334S5.2 8 5 8H2.333C2.133 8 2 7.867 2 7.667s.133-.334.333-.334zm4.667 2H2.333C2.133 9.333 2 9.2 2 9s.133-.333.333-.333H7c.2 0 .333.133.333.333S7.2 9.333 7 9.333zm5.667 0c-.267 0-.467-.066-.667-.2-.2.134-.4.2-.667.2C10.6 9.333 10 8.733 10 8s.6-1.333 1.333-1.333c.267 0 .467.066.667.2.2-.134.4-.2.667-.2C13.4 6.667 14 7.267 14 8s-.6 1.333-1.333 1.333zM14.333.667H1.667A1.65 1.65 0 000 2.333V3c0 .2.133.333.333.333h15.334c.2 0 .333-.133.333-.333v-.667A1.65 1.65 0 0014.333.667z"/></g></svg>