<svg width="38" height="12" viewBox="0 0 38 12" fill="none" xmlns="http://www.w3.org/2000/svg">
<path d="M35.47 0H33.105C32.39 0 31.84 0.235294 31.51 1L27 12H30.19C30.19 12 30.74 10.5294 30.85 10.1765C31.18 10.1765 34.315 10.1765 34.755 10.1765C34.865 10.5882 35.14 11.9412 35.14 11.9412H38L35.47 0ZM31.73 7.70588C32.005 7 32.94 4.35294 32.94 4.35294C32.94 4.41177 33.215 3.64706 33.325 3.23529L33.545 4.29412C33.545 4.29412 34.15 7.17647 34.26 7.76471H31.73V7.70588Z" fill="#B0C1FF"/>
<path d="M26.6205 8C26.6205 10.4 24.5602 12 21.3614 12C20.006 12 18.7048 11.7143 18 11.3714L18.4337 8.74286L18.8133 8.91429C19.7892 9.37143 20.4398 9.54286 21.6325 9.54286C22.5 9.54286 23.4217 9.2 23.4217 8.4C23.4217 7.88571 23.0422 7.54286 21.8494 6.97143C20.7108 6.4 19.1928 5.48571 19.1928 3.82857C19.1928 1.54286 21.3072 0 24.2892 0C25.4277 0 26.4036 0.228571 27 0.514286L26.5663 3.02857L26.3494 2.8C25.8072 2.57143 25.1024 2.34286 24.0723 2.34286C22.9337 2.4 22.3916 2.91429 22.3916 3.37143C22.3916 3.88571 23.0422 4.28571 24.0723 4.8C25.8072 5.65714 26.6205 6.62857 26.6205 8Z" fill="#B0C1FF"/>
<path d="M0 0.224299L0.0538462 0H4.68462C5.33077 0 5.81539 0.224299 5.97692 0.953271L7 6C5.97692 3.30841 3.60769 1.1215 0 0.224299Z" fill="#CFD8F5"/>
<path d="M14 0.0588235L9.11735 12H5.80612L3 2C5.02041 3.35294 6.70408 5.47059 7.32143 6.94118L7.65816 8.17647L10.6888 0H14V0.0588235Z" fill="#B0C1FF"/>
<path d="M14.9444 0H18L16.0556 12H13L14.9444 0Z" fill="#B0C1FF"/>
</svg>
