<svg width="14" height="14" xmlns="http://www.w3.org/2000/svg"><g fill="#FFF" fill-rule="nonzero"><path d="M8.75 7.583a.583.583 0 00-.583.584V10.5a.584.584 0 01-.584.583h-1.75v-8.75c0-.498-.317-.943-.794-1.108l-.173-.058h2.717c.322 0 .584.262.584.583V3.5a.583.583 0 101.166 0V1.75C9.333.785 8.548 0 7.583 0h-6.27c-.023 0-.041.01-.063.013C1.222.011 1.195 0 1.167 0 .523 0 0 .523 0 1.167v10.5c0 .498.317.943.794 1.109l3.511 1.17c.119.037.237.054.362.054.643 0 1.166-.523 1.166-1.167v-.583h1.75c.965 0 1.75-.785 1.75-1.75V8.167a.583.583 0 00-.583-.584z"/><path d="M13.829 5.421l-2.334-2.333a.583.583 0 00-.995.412v1.75H8.166a.584.584 0 000 1.167H10.5v1.75a.584.584 0 00.995.412l2.334-2.333a.583.583 0 000-.825z"/></g></svg>