<svg width="38" height="22" viewBox="0 0 38 22" fill="none" xmlns="http://www.w3.org/2000/svg">
<path d="M38 11C38 17.0359 32.9138 22 26.6 22C20.3446 22 15.2 17.0359 15.2 11C15.2 4.9641 20.2861 0 26.5415 0C32.9138 0 38 4.9641 38 11Z" fill="#CFD8F5"/>
<path d="M22.7415 11.0564C22.7415 10.2667 22.6246 9.47692 22.5077 8.74359H15.4923C15.5508 8.34872 15.6677 8.01026 15.7846 7.55897H22.04C21.9231 7.1641 21.7477 6.76923 21.5723 6.37436H16.2523C16.4277 5.97949 16.6615 5.64103 16.8954 5.18974H20.9292C20.6954 4.79487 20.4031 4.4 20.0523 4.00513H17.8308C18.1815 3.61026 18.5323 3.2718 19 2.87692C17.0123 1.07179 14.3231 0 11.3415 0C5.14461 0.169231 0 4.9641 0 11C0 17.0359 5.08615 22 11.4 22C14.3815 22 17.0123 20.8718 19.0585 19.1231C19.4677 18.7846 19.8185 18.3897 20.2277 17.9385H17.8892C17.5969 17.6 17.3046 17.2051 17.0708 16.8103H21.0462C21.28 16.4718 21.5138 16.0769 21.6892 15.6256H16.3692C16.1938 15.2872 16.0185 14.8923 15.9015 14.441H22.1569C22.5077 13.4256 22.7415 12.2974 22.7415 11.0564Z" fill="#B0C1FF"/>
<path d="M15.4338 13.8205L15.6092 12.8051C15.5507 12.8051 15.4338 12.8615 15.3169 12.8615C14.9076 12.8615 14.8492 12.6359 14.9076 12.523L15.2584 10.4923H15.9015L16.0769 9.36406H15.4922L15.6092 8.68713H14.3815C14.3815 8.68713 13.6799 12.523 13.6799 12.9743C13.6799 13.6512 14.0892 13.9897 14.6738 13.9897C15.0245 13.9897 15.3169 13.8769 15.4338 13.8205Z" fill="white"/>
<path d="M15.843 11.959C15.843 13.5949 17.0122 13.9897 17.9476 13.9897C18.8246 13.9897 19.2338 13.8205 19.2338 13.8205L19.4676 12.6923C19.4676 12.6923 18.8246 12.9744 18.1815 12.9744C16.8369 12.9744 17.0707 12.0154 17.0707 12.0154H19.5261C19.5261 12.0154 19.7015 11.2821 19.7015 10.9436C19.7015 10.2103 19.2922 9.25129 17.9476 9.25129C16.7784 9.19488 15.843 10.4923 15.843 11.959ZM17.9476 10.2667C18.5907 10.2667 18.4738 11 18.4738 11.0564H17.1292C17.1876 11 17.3046 10.2667 17.9476 10.2667Z" fill="white"/>
<path d="M25.6062 13.8205L25.8401 12.523C25.8401 12.523 25.2555 12.8051 24.7878 12.8051C23.9693 12.8051 23.5601 12.1846 23.5601 11.4513C23.5601 10.041 24.2616 9.30766 25.1385 9.30766C25.7232 9.30766 26.2493 9.64612 26.2493 9.64612L26.4247 8.4051C26.4247 8.4051 25.7232 8.12305 25.0216 8.12305C23.6185 8.12305 22.2739 9.30766 22.2739 11.5077C22.2739 12.9743 22.9755 13.9333 24.437 13.9333C24.9632 13.9897 25.6062 13.8205 25.6062 13.8205Z" fill="white"/>
<path d="M8.82761 9.19495C8.00915 9.19495 7.36607 9.42059 7.36607 9.42059L7.19068 10.436C7.19068 10.436 7.71684 10.2103 8.5353 10.2103C8.94453 10.2103 9.2953 10.2667 9.2953 10.6052C9.2953 10.8308 9.23684 10.8873 9.23684 10.8873H8.71068C7.65838 10.8873 6.54761 11.2821 6.54761 12.636C6.54761 13.7078 7.24915 13.9334 7.71684 13.9334C8.5353 13.9334 8.94453 13.4257 9.00299 13.4257L8.94453 13.877H9.93838L10.4061 10.6616C10.4061 9.25136 9.23684 9.19495 8.82761 9.19495ZM9.06145 11.7898C9.06145 11.959 8.94453 12.918 8.24299 12.918C7.89222 12.918 7.7753 12.636 7.7753 12.4667C7.7753 12.1847 7.95068 11.7898 8.88607 11.7898C9.00299 11.7898 9.06145 11.7898 9.06145 11.7898Z" fill="white"/>
<path d="M11.5753 13.9333C11.8676 13.9333 13.3876 13.9897 13.3876 12.4102C13.3876 10.9436 11.9261 11.2256 11.9261 10.6615C11.9261 10.3795 12.1599 10.2666 12.5692 10.2666C12.7445 10.2666 13.3876 10.323 13.3876 10.323L13.563 9.25125C13.563 9.25125 13.1538 9.13843 12.3938 9.13843C11.5168 9.13843 10.5815 9.47689 10.5815 10.6615C10.5815 12.0154 12.1015 11.9025 12.1015 12.4102C12.1015 12.7487 11.6922 12.8051 11.3999 12.8051C10.8738 12.8051 10.2892 12.6359 10.2892 12.6359L10.1138 13.7077C10.2307 13.8205 10.5815 13.9333 11.5753 13.9333Z" fill="white"/>
<path d="M35.6616 8.29236L35.4278 9.87185C35.4278 9.87185 34.9601 9.30774 34.2586 9.30774C33.1478 9.30774 32.2124 10.6052 32.2124 12.1283C32.2124 13.0872 32.6801 14.0462 33.7324 14.0462C34.4339 14.0462 34.9016 13.5949 34.9016 13.5949L34.8432 13.9898H36.0709L36.9478 8.40518L35.6616 8.29236ZM35.077 11.3385C35.077 11.959 34.7847 12.8052 34.0832 12.8052C33.6739 12.8052 33.4401 12.4667 33.4401 11.8462C33.4401 10.8872 33.8493 10.3231 34.4339 10.3231C34.8432 10.3795 35.077 10.6616 35.077 11.3385Z" fill="white"/>
<path d="M2.22148 13.877L2.92302 9.70262L3.03994 13.877H3.8584L5.43686 9.70262L4.79378 13.877H6.07994L7.07378 8.29236H5.08609L3.8584 11.7334L3.79994 8.29236H2.04609L1.05225 13.877H2.22148Z" fill="white"/>
<path d="M20.9293 13.8768C21.2801 11.9589 21.3386 10.3794 22.2155 10.6615C22.3324 9.92813 22.5078 9.58967 22.6247 9.30762H22.3909C21.8647 9.30762 21.397 9.98454 21.397 9.98454L21.5139 9.36403H20.3447L19.5847 13.8768H20.9293Z" fill="white"/>
<path d="M28.4123 9.19495C27.5939 9.19495 26.9508 9.42059 26.9508 9.42059L26.7754 10.436C26.7754 10.436 27.3016 10.2103 28.12 10.2103C28.5292 10.2103 28.88 10.2667 28.88 10.6052C28.88 10.8308 28.8216 10.8873 28.8216 10.8873H28.2954C27.2431 10.8873 26.1323 11.2821 26.1323 12.636C26.1323 13.7078 26.8339 13.9334 27.3016 13.9334C28.12 13.9334 28.5292 13.4257 28.5877 13.4257L28.5292 13.877H29.64L30.1077 10.6616C30.1077 9.25136 28.8216 9.19495 28.4123 9.19495ZM28.7046 11.7898C28.7046 11.959 28.5877 12.918 27.8862 12.918C27.5354 12.918 27.4185 12.636 27.4185 12.4667C27.4185 12.1847 27.5939 11.7898 28.5292 11.7898C28.6462 11.7898 28.6462 11.7898 28.7046 11.7898Z" fill="white"/>
<path d="M31.0431 13.8768C31.3939 11.9589 31.4523 10.3794 32.3293 10.6615C32.4462 9.92813 32.6216 9.58967 32.7385 9.30762H32.5046C31.9785 9.30762 31.5108 9.98454 31.5108 9.98454L31.6277 9.36403H30.4585L29.6985 13.8768H31.0431Z" fill="white"/>
</svg>
