<svg width="16" height="16" viewBox="0 0 16 16" fill="none" xmlns="http://www.w3.org/2000/svg">
<path d="M8 15C9.10457 15 10 14.1046 10 13C10 12.8062 9.8313 12.6651 9.63751 12.6629L6.41586 12.6264C6.19581 12.6239 6 12.78 6 13C6 14.1046 6.89543 15 8 15Z" fill="#644BEC"/>
<path d="M3.3335 6C3.3335 3.42267 5.42283 1 8.00016 1C10.5775 1 12.6668 3.42267 12.6668 6V7.64045C12.6668 8.50522 13.0366 9.32871 13.683 9.90324V9.90324C14.3765 10.5197 13.9405 11.6667 13.0125 11.6667H2.98781C2.05986 11.6667 1.6238 10.5197 2.31736 9.90324V9.90324C2.96369 9.32871 3.3335 8.50522 3.3335 7.64045V6Z" fill="#644BEC"/>
</svg>
