<svg width="27" height="30" viewBox="0 0 27 30" fill="none" xmlns="http://www.w3.org/2000/svg">
<path d="M20.8174 1.18239C16.053 0.272536 11.1054 0.272536 6.34097 1.18239C4.23364 1.63732 1.57657 4.18492 1.11846 6.1866C0.293848 10.099 0.293848 14.1023 1.11846 18.0147C1.66819 20.0164 4.32526 22.564 6.34097 23.0189C6.43259 23.0189 6.52421 23.1099 6.52421 23.2009V28.933C6.52421 29.206 6.89071 29.3879 7.07395 29.115L9.82265 26.2944C9.82265 26.2944 12.0216 24.0198 12.3881 23.6558C12.3881 23.6558 12.4797 23.5649 12.5713 23.5649C15.32 23.6558 18.1603 23.3829 20.909 22.928C23.0164 22.473 25.6734 19.9254 26.1315 17.9237C26.9562 14.0114 26.9562 10.008 26.1315 6.09562C25.5818 4.18492 22.9247 1.63732 20.8174 1.18239ZM20.909 18.2877C20.4509 19.1975 19.9012 19.9254 18.9849 20.3804C18.7101 20.4713 18.4352 20.5623 18.1603 20.6533C17.7938 20.5623 17.519 20.4713 17.2441 20.3804C14.3122 19.1975 11.5635 17.5598 9.36453 15.1942C8.17343 13.8294 7.16557 12.2826 6.34097 10.6449C5.97447 9.82603 5.60798 9.09814 5.33311 8.27927C5.05825 7.55138 5.51636 6.8235 5.97447 6.27759C6.43259 5.73167 6.98233 5.36773 7.62369 5.09477C8.08181 4.82182 8.53992 5.00379 8.90641 5.36773C9.6394 6.27759 10.3724 7.18744 10.9221 8.18828C11.2886 8.82518 11.197 9.55307 10.5556 10.008C10.3724 10.099 10.2808 10.19 10.0975 10.3719C10.0059 10.4629 9.82264 10.5539 9.73102 10.7359C9.54777 11.0088 9.54777 11.2818 9.63939 11.5548C10.3724 13.6474 11.7467 15.2852 13.8541 16.195C14.2205 16.377 14.4954 16.468 14.9535 16.468C15.5949 16.377 15.8698 15.6491 16.3279 15.2852C16.786 14.9212 17.3357 14.9212 17.8855 15.1942C18.3436 15.4671 18.8017 15.8311 19.3514 16.195C19.8096 16.559 20.2677 16.8319 20.7258 17.1959C21.0007 17.3778 21.0923 17.8328 20.909 18.2877ZM17.0609 11.4638C16.8776 11.4638 16.9692 11.4638 17.0609 11.4638C16.6944 11.4638 16.6027 11.2818 16.5111 11.0088C16.5111 10.8269 16.5111 10.5539 16.4195 10.3719C16.3279 10.008 16.1446 9.64405 15.7781 9.3711C15.5949 9.28011 15.4116 9.18913 15.2284 9.09814C14.9535 9.00715 14.7703 9.00716 14.4954 9.00716C14.2206 8.91617 14.1289 8.7342 14.1289 8.46124C14.1289 8.27927 14.4038 8.0973 14.587 8.0973C16.053 8.18829 17.1525 9.00715 17.3357 10.7359C17.3357 10.8269 17.3357 11.0088 17.3357 11.0998C17.3357 11.2818 17.2441 11.4638 17.0609 11.4638ZM16.1446 7.4604C15.6865 7.27843 15.2284 7.09646 14.6787 7.00547C14.4954 7.00547 14.2206 6.91449 14.0373 6.91449C13.7624 6.91449 13.5792 6.73251 13.6708 6.45956C13.6708 6.1866 13.8541 6.00463 14.1289 6.09562C15.0452 6.1866 15.8698 6.36857 16.6944 6.73252C18.3436 7.55139 19.2598 8.91617 19.5347 10.7359C19.5347 10.8269 19.5347 10.9179 19.5347 11.0088C19.5347 11.1908 19.5347 11.3728 19.5347 11.6457C19.5347 11.7367 19.5347 11.8277 19.5347 11.9187C19.4431 12.2826 18.8017 12.3736 18.7101 11.9187C18.7101 11.8277 18.6185 11.6457 18.6185 11.5548C18.6185 10.7359 18.4352 9.91701 18.0687 9.18913C17.519 8.37026 16.8776 7.82434 16.1446 7.4604ZM21.0923 12.9195C20.8174 12.9195 20.6342 12.6466 20.6342 12.3736C20.6342 11.8277 20.5425 11.2818 20.4509 10.7359C20.0844 7.82434 17.7022 5.45872 14.8619 5.00379C14.4038 4.9128 13.9457 4.9128 13.5792 4.82182C13.3043 4.82182 12.9378 4.82182 12.8462 4.45787C12.7546 4.18492 13.0294 3.91196 13.3043 3.91196C13.3959 3.91196 13.4876 3.91196 13.4876 3.91196C17.2441 4.00295 13.6708 3.91196 13.4876 3.91196C17.3357 4.00295 20.5425 6.55054 21.1839 10.3719C21.2755 11.0088 21.3671 11.6457 21.3671 12.3736C21.5504 12.6466 21.3671 12.9195 21.0923 12.9195Z" fill="white"/>
</svg>
