<svg width="16" height="16" viewBox="0 0 16 16" fill="none" xmlns="http://www.w3.org/2000/svg">
<g clip-path="url(#clip0)">
<path d="M9.9999 8.66679C9.63125 8.66679 9.33328 8.96549 9.33328 9.33341V12.0001C9.33328 12.3674 9.03457 12.6668 8.66654 12.6668H6.66656V2.66685C6.66656 2.09751 6.30389 1.58885 5.75861 1.39952L5.56122 1.33348H8.66654C9.03457 1.33348 9.33328 1.6328 9.33328 2.00023V4.00021C9.33328 4.36812 9.63125 4.66683 9.9999 4.66683C10.3685 4.66683 10.6665 4.36812 10.6665 4.00021V2.00023C10.6665 0.897575 9.76919 0.000244141 8.66654 0.000244141H1.49998C1.47459 0.000244141 1.45335 0.0115966 1.4287 0.0148924C1.39659 0.0122069 1.36595 0.000244141 1.33336 0.000244141C0.598016 0.000244141 0 0.598139 0 1.33348V13.3334C0 13.9027 0.362667 14.4114 0.907949 14.6007L4.91999 15.9381C5.05598 15.9801 5.19123 16.0001 5.33332 16.0001C6.06866 16.0001 6.66656 15.4021 6.66656 14.6667V14.0001H8.66654C9.76919 14.0001 10.6665 13.1028 10.6665 12.0001V9.33341C10.6665 8.96549 10.3685 8.66679 9.9999 8.66679Z" fill="#999999"/>
<path d="M15.804 6.19536L13.1373 3.52876C12.9467 3.33809 12.66 3.28072 12.4107 3.38399C12.1621 3.48738 11.9994 3.73067 11.9994 4.00007V6.00005H9.33276C8.96472 6.00005 8.66602 6.29863 8.66602 6.66667C8.66602 7.03471 8.96472 7.33329 9.33276 7.33329H11.9994V9.33327C11.9994 9.60268 12.1621 9.84596 12.4107 9.94935C12.66 10.0526 12.9467 9.99525 13.1373 9.8047L15.804 7.13798C16.0646 6.87736 16.0646 6.45598 15.804 6.19536Z" fill="#999999"/>
</g>
<defs>
<clipPath id="clip0">
<rect width="16" height="16" fill="white"/>
</clipPath>
</defs>
</svg>
