<svg width="225" height="136" viewBox="0 0 225 136" fill="none" xmlns="http://www.w3.org/2000/svg">
<g opacity="0.6">
<ellipse cx="2.08378" cy="6.2" rx="2.08378" ry="2.08236" fill="#CFD8F5"/>
<ellipse cx="22.9217" cy="6.2" rx="2.08378" ry="2.08236" fill="#CFD8F5"/>
<ellipse cx="43.7596" cy="6.2" rx="2.08378" ry="2.08236" fill="#CFD8F5"/>
<ellipse cx="64.5975" cy="6.2" rx="2.08378" ry="2.08236" fill="#CFD8F5"/>
<ellipse cx="85.4353" cy="6.2" rx="2.08379" ry="2.08236" fill="#CFD8F5"/>
<ellipse cx="106.273" cy="6.2" rx="2.08379" ry="2.08236" fill="#CFD8F5"/>
<ellipse cx="127.111" cy="6.2" rx="2.08378" ry="2.08236" fill="#CFD8F5"/>
<ellipse cx="147.949" cy="6.2" rx="2.08379" ry="2.08236" fill="#CFD8F5"/>
<ellipse cx="168.786" cy="6.2" rx="2.08379" ry="2.08236" fill="#CFD8F5"/>
<ellipse cx="189.624" cy="6.2" rx="2.08378" ry="2.08236" fill="#CFD8F5"/>
<ellipse cx="210.462" cy="6.2" rx="2.08379" ry="2.08236" fill="#CFD8F5"/>
<ellipse cx="2.08378" cy="27.0235" rx="2.08378" ry="2.08235" fill="#CFD8F5"/>
<ellipse cx="22.9217" cy="27.0235" rx="2.08378" ry="2.08235" fill="#CFD8F5"/>
<ellipse cx="43.7596" cy="27.0235" rx="2.08378" ry="2.08235" fill="#CFD8F5"/>
<ellipse cx="64.5975" cy="27.0235" rx="2.08378" ry="2.08235" fill="#CFD8F5"/>
<ellipse cx="85.4353" cy="27.0235" rx="2.08379" ry="2.08235" fill="#CFD8F5"/>
<ellipse cx="106.273" cy="27.0235" rx="2.08379" ry="2.08235" fill="#CFD8F5"/>
<ellipse cx="127.111" cy="27.0235" rx="2.08378" ry="2.08235" fill="#CFD8F5"/>
<ellipse cx="147.949" cy="27.0235" rx="2.08379" ry="2.08235" fill="#CFD8F5"/>
<ellipse cx="168.786" cy="27.0235" rx="2.08379" ry="2.08235" fill="#CFD8F5"/>
<ellipse cx="189.624" cy="27.0235" rx="2.08378" ry="2.08235" fill="#CFD8F5"/>
<ellipse cx="210.462" cy="27.0235" rx="2.08379" ry="2.08235" fill="#CFD8F5"/>
<ellipse cx="2.08378" cy="47.8471" rx="2.08378" ry="2.08235" fill="#CFD8F5"/>
<ellipse cx="22.9217" cy="47.8471" rx="2.08378" ry="2.08235" fill="#CFD8F5"/>
<ellipse cx="43.7596" cy="47.8471" rx="2.08378" ry="2.08235" fill="#CFD8F5"/>
<ellipse cx="64.5975" cy="47.8471" rx="2.08378" ry="2.08235" fill="#CFD8F5"/>
<ellipse cx="85.4353" cy="47.8471" rx="2.08379" ry="2.08235" fill="#CFD8F5"/>
<ellipse cx="106.273" cy="47.8471" rx="2.08379" ry="2.08235" fill="#CFD8F5"/>
<ellipse cx="127.111" cy="47.8471" rx="2.08378" ry="2.08235" fill="#CFD8F5"/>
<ellipse cx="147.949" cy="47.8471" rx="2.08379" ry="2.08235" fill="#CFD8F5"/>
<ellipse cx="168.786" cy="47.8471" rx="2.08379" ry="2.08235" fill="#CFD8F5"/>
<ellipse cx="189.624" cy="47.8471" rx="2.08378" ry="2.08235" fill="#CFD8F5"/>
<ellipse cx="210.462" cy="47.8471" rx="2.08379" ry="2.08235" fill="#CFD8F5"/>
<ellipse cx="2.08378" cy="68.6706" rx="2.08378" ry="2.08235" fill="#CFD8F5"/>
<ellipse cx="22.9217" cy="68.6706" rx="2.08378" ry="2.08235" fill="#CFD8F5"/>
<ellipse cx="43.7596" cy="68.6706" rx="2.08378" ry="2.08235" fill="#CFD8F5"/>
<ellipse cx="64.5975" cy="68.6706" rx="2.08378" ry="2.08235" fill="#CFD8F5"/>
<ellipse cx="85.4353" cy="68.6706" rx="2.08379" ry="2.08235" fill="#CFD8F5"/>
<ellipse cx="106.273" cy="68.6706" rx="2.08379" ry="2.08235" fill="#CFD8F5"/>
<ellipse cx="127.111" cy="68.6706" rx="2.08378" ry="2.08235" fill="#CFD8F5"/>
<ellipse cx="147.949" cy="68.6706" rx="2.08379" ry="2.08235" fill="#CFD8F5"/>
<ellipse cx="168.786" cy="68.6706" rx="2.08379" ry="2.08235" fill="#CFD8F5"/>
<ellipse cx="189.624" cy="68.6706" rx="2.08378" ry="2.08235" fill="#CFD8F5"/>
<ellipse cx="210.462" cy="68.6706" rx="2.08379" ry="2.08235" fill="#CFD8F5"/>
<ellipse cx="2.08378" cy="89.4941" rx="2.08378" ry="2.08236" fill="#CFD8F5"/>
<ellipse cx="22.9217" cy="89.4941" rx="2.08378" ry="2.08236" fill="#CFD8F5"/>
<ellipse cx="43.7596" cy="89.4941" rx="2.08378" ry="2.08236" fill="#CFD8F5"/>
<ellipse cx="64.5975" cy="89.4941" rx="2.08378" ry="2.08236" fill="#CFD8F5"/>
<ellipse cx="85.4353" cy="89.4941" rx="2.08379" ry="2.08236" fill="#CFD8F5"/>
<ellipse cx="106.273" cy="89.4941" rx="2.08379" ry="2.08236" fill="#CFD8F5"/>
<ellipse cx="127.111" cy="89.4941" rx="2.08378" ry="2.08236" fill="#CFD8F5"/>
<ellipse cx="147.949" cy="89.4941" rx="2.08379" ry="2.08236" fill="#CFD8F5"/>
<ellipse cx="168.786" cy="89.4941" rx="2.08379" ry="2.08236" fill="#CFD8F5"/>
<ellipse cx="189.624" cy="89.4941" rx="2.08378" ry="2.08236" fill="#CFD8F5"/>
<ellipse cx="210.462" cy="89.4941" rx="2.08379" ry="2.08236" fill="#CFD8F5"/>
<ellipse cx="2.08378" cy="110.318" rx="2.08378" ry="2.08235" fill="#CFD8F5"/>
<ellipse cx="22.9217" cy="110.318" rx="2.08378" ry="2.08235" fill="#CFD8F5"/>
<ellipse cx="43.7596" cy="110.318" rx="2.08378" ry="2.08235" fill="#CFD8F5"/>
<ellipse cx="64.5975" cy="110.318" rx="2.08378" ry="2.08235" fill="#CFD8F5"/>
<ellipse cx="85.4353" cy="110.318" rx="2.08379" ry="2.08235" fill="#CFD8F5"/>
<ellipse cx="106.273" cy="110.318" rx="2.08379" ry="2.08235" fill="#CFD8F5"/>
<ellipse cx="127.111" cy="110.318" rx="2.08378" ry="2.08235" fill="#CFD8F5"/>
<ellipse cx="147.949" cy="110.318" rx="2.08379" ry="2.08235" fill="#CFD8F5"/>
<ellipse cx="168.786" cy="110.318" rx="2.08379" ry="2.08235" fill="#CFD8F5"/>
<ellipse cx="189.624" cy="110.318" rx="2.08378" ry="2.08235" fill="#CFD8F5"/>
<ellipse cx="210.462" cy="110.318" rx="2.08379" ry="2.08235" fill="#CFD8F5"/>
<ellipse cx="2.08378" cy="131.141" rx="2.08378" ry="2.08235" fill="#CFD8F5"/>
<ellipse cx="22.9217" cy="131.141" rx="2.08378" ry="2.08235" fill="#CFD8F5"/>
<ellipse cx="43.7596" cy="131.141" rx="2.08378" ry="2.08235" fill="#CFD8F5"/>
<ellipse cx="64.5975" cy="131.141" rx="2.08378" ry="2.08235" fill="#CFD8F5"/>
<ellipse cx="85.4353" cy="131.141" rx="2.08379" ry="2.08235" fill="#CFD8F5"/>
<ellipse cx="106.273" cy="131.141" rx="2.08379" ry="2.08235" fill="#CFD8F5"/>
<ellipse cx="127.111" cy="131.141" rx="2.08378" ry="2.08235" fill="#CFD8F5"/>
<ellipse cx="147.949" cy="131.141" rx="2.08379" ry="2.08235" fill="#CFD8F5"/>
<ellipse cx="168.786" cy="131.141" rx="2.08379" ry="2.08235" fill="#CFD8F5"/>
<ellipse cx="189.624" cy="131.141" rx="2.08378" ry="2.08235" fill="#CFD8F5"/>
<ellipse cx="210.462" cy="131.141" rx="2.08379" ry="2.08235" fill="#CFD8F5"/>
</g>
</svg>
