<svg width="1430" height="486" viewBox="0 0 1430 486" fill="none" xmlns="http://www.w3.org/2000/svg">
<g opacity="0.4" clip-path="url(#clip0)">
<path d="M1149.21 112.674L1147.18 111.534L1158.58 91.1759L1160.61 92.316L1161.75 90.2802L1157.68 88L1144 112.43L1148.07 114.71L1149.21 112.674Z" fill="#B0C1FF"/>
<path d="M1176.9 101.437L1178.93 102.577L1167.53 122.935L1165.5 121.795L1164.36 123.831L1168.43 126.111L1182.11 101.681L1178.04 99.4007L1176.9 101.437Z" fill="#B0C1FF"/>
<path d="M1152.39 111.779L1164.6 118.619L1166.88 114.547L1164.85 113.407L1163.71 115.443L1156.31 111.301L1164.9 108.087L1163.15 99.0856L1170.55 103.228L1169.41 105.264L1171.44 106.404L1173.72 102.332L1161.51 95.4919L1160.44 97.3913L1162.23 106.594L1153.45 109.879L1152.39 111.779Z" fill="#B0C1FF"/>
</g>
<g opacity="0.4" clip-path="url(#clip1)">
<path d="M213.212 471.674L211.176 470.534L222.577 450.176L224.613 451.316L225.753 449.28L221.681 447L208 471.43L212.072 473.71L213.212 471.674Z" fill="#B0C1FF"/>
<path d="M240.899 460.437L242.935 461.577L231.534 481.935L229.498 480.795L228.358 482.831L232.43 485.111L246.111 460.681L242.039 458.401L240.899 460.437Z" fill="#B0C1FF"/>
<path d="M216.388 470.779L228.603 477.619L230.883 473.547L228.847 472.407L227.707 474.443L220.31 470.301L228.898 467.087L227.15 458.086L234.547 462.228L233.407 464.264L235.443 465.404L237.723 461.332L225.508 454.492L224.445 456.391L226.231 465.594L217.451 468.879L216.388 470.779Z" fill="#B0C1FF"/>
</g>
<g opacity="0.4" clip-path="url(#clip2)">
<path d="M31.291 20.0207L30.1244 18C27.2933 19.6345 26.0394 23.0534 27.1413 26.1308L29.6357 33.1008L26.9426 34.6557L28.1092 36.6764L30.4351 35.3336L32.7867 41.9045C33.5083 43.9194 32.6868 46.1579 30.8333 47.228L32 49.2487C34.831 47.6142 36.0849 44.1953 34.9831 41.1179L32.4886 34.1479L34.6766 32.8847L33.5099 30.864L31.6893 31.9152L29.3377 25.3442C28.6161 23.3293 29.4375 21.0908 31.291 20.0207Z" fill="#B0C1FF"/>
<path d="M34.6348 23.4788L33.4764 23.3392C33.4603 23.4732 33.1099 26.671 35.6088 30.9994C38.1078 35.3277 41.0524 36.6232 41.1765 36.6762L42.0925 34.5305C42.0701 34.5207 39.7103 33.4365 37.6296 29.8327C35.5495 26.2298 35.7915 23.6355 35.7937 23.6092L34.6348 23.4788Z" fill="#B0C1FF"/>
<path d="M42.7646 19.5935C42.7875 19.603 45.1474 20.6872 47.2281 24.291C49.3082 27.8939 49.0662 30.4882 49.0639 30.5145L50.2229 30.6449L51.3813 30.7845C51.3978 30.6496 51.7478 27.4527 49.2488 23.1244C46.7498 18.796 43.8052 17.5005 43.6812 17.4475L42.7646 19.5935Z" fill="#B0C1FF"/>
<path d="M41.5783 23.3923L41.3303 25.7427L39.1708 24.7823L38.2233 26.9146L41.0726 28.1816L40.7452 31.2826L43.0656 31.5282L43.3136 29.1778L45.4731 30.1383L46.4206 28.006L43.5713 26.7389L43.8987 23.6379L41.5783 23.3923Z" fill="#B0C1FF"/>
</g>
<g opacity="0.4" clip-path="url(#clip3)">
<path d="M209.868 268.057C208.351 267.947 206.991 268.827 206.412 270.146L196.696 269.442C196.314 268.053 195.094 266.986 193.577 266.876C192.061 266.766 190.7 267.646 190.121 268.965L187.591 268.781L187.422 271.109L189.953 271.292C190.335 272.681 191.554 273.748 193.071 273.858C194.588 273.968 195.948 273.088 196.527 271.769L206.243 272.474C206.625 273.862 207.845 274.929 209.362 275.039C210.878 275.149 212.239 274.269 212.817 272.95L215.348 273.134L215.517 270.807L212.986 270.623C212.604 269.234 211.385 268.167 209.868 268.057ZM193.24 271.531C192.598 271.484 192.114 270.924 192.161 270.283C192.207 269.641 192.767 269.157 193.409 269.203C194.05 269.25 194.534 269.81 194.488 270.451C194.441 271.093 193.882 271.577 193.24 271.531ZM209.53 272.712C208.889 272.665 208.405 272.106 208.451 271.464C208.498 270.822 209.057 270.338 209.699 270.385C210.341 270.431 210.825 270.991 210.778 271.633C210.732 272.274 210.172 272.758 209.53 272.712Z" fill="#B0C1FF"/>
<path d="M210.88 254.094L207.39 253.841L206.546 265.477L210.037 265.73C211.962 265.87 213.641 264.418 213.781 262.493C213.846 261.598 213.564 260.759 213.053 260.1C213.653 259.522 214.053 258.733 214.118 257.838C214.258 255.913 212.806 254.234 210.88 254.094ZM209.548 256.337L210.712 256.421C211.353 256.468 211.837 257.028 211.791 257.669C211.744 258.311 211.185 258.795 210.543 258.749L209.379 258.664L209.548 256.337ZM210.205 263.403L209.042 263.319L209.211 260.991L210.374 261.076C211.016 261.122 211.5 261.682 211.453 262.324C211.407 262.966 210.847 263.45 210.205 263.403Z" fill="#B0C1FF"/>
<path d="M197.237 264.802L197.828 256.657C197.967 254.731 196.515 253.052 194.59 252.913C192.665 252.773 190.986 254.225 190.846 256.15L190.255 264.296L192.583 264.464L192.836 260.974L195.163 261.142L194.91 264.633L197.237 264.802ZM193.004 258.646L193.173 256.319C193.22 255.677 193.779 255.193 194.421 255.24C195.063 255.287 195.547 255.846 195.5 256.488L195.332 258.815L193.004 258.646Z" fill="#B0C1FF"/>
</g>
<g opacity="0.3" clip-path="url(#clip4)">
<path d="M671.273 66.6057L668.941 66.5125L668.429 79.3356L655.606 78.8231L655.512 81.1546L668.336 81.6671L667.823 94.4902L670.154 94.5834L670.667 81.7603L683.49 82.2728L683.583 79.9413L670.76 79.4288L671.273 66.6057Z" fill="#B0C1FF"/>
<path d="M666.61 66.4193L664.278 66.3262C664.098 70.826 660.292 74.34 655.792 74.1602L655.699 76.4916C661.484 76.7228 666.379 72.2042 666.61 66.4193Z" fill="#B0C1FF"/>
<path d="M672.486 94.6766L674.817 94.7698C674.997 90.2699 678.804 86.7559 683.304 86.9358L683.397 84.6043C677.612 84.3731 672.717 88.8917 672.486 94.6766Z" fill="#B0C1FF"/>
</g>
<g opacity="0.4" clip-path="url(#clip5)">
<path d="M387.803 26.3119L392.321 15.8436C393.756 16.3155 395.267 16.5188 396.782 16.4418L398.686 29.8488L400.911 29.5327L399.641 20.5869C402.422 19.9812 404.753 18.7041 406.06 17.8686L410.379 23.1052L412.114 21.6751L404.892 12.9189L404.894 12.9175L397.623 4.10567L395.861 1.96909L394.764 4.51181L390.234 15L390.237 15.0008L385.739 25.4214L387.803 26.3119ZM397.838 7.89919L401.692 12.5716C400.775 13.1723 399.753 13.6115 398.688 13.8819L397.838 7.89919ZM393.213 13.7761L395.613 8.21528L396.463 14.1986C395.365 14.2349 394.261 14.0972 393.213 13.7761ZM399.324 18.3548L399.007 16.1257C400.483 15.7769 401.878 15.1618 403.125 14.3088L404.617 16.1187C403.479 16.8196 401.555 17.8385 399.324 18.3548Z" fill="#B0C1FF"/>
</g>
<g opacity="0.4" clip-path="url(#clip6)">
<path d="M1182.43 341.469L1165.75 322.713L1157.46 346.407L1171.18 350.181L1182.43 341.469ZM1168.06 328.676L1175.85 337.427L1170.6 341.495L1168.06 328.676ZM1171.68 346.969L1171.08 343.944L1177.34 339.1L1179.18 341.168L1171.68 346.969ZM1165.87 329.109L1169.49 347.402L1160.36 344.888L1165.87 329.109Z" fill="#B0C1FF"/>
</g>
<path d="M150.527 115L149.019 116.106L148.267 114.395C147.624 112.933 146.303 111.73 144.558 111.263C141.558 110.459 138.618 112.148 137.89 114.864L137.89 114.864C137.006 118.164 138.756 121.668 141.144 124.611C142.302 126.037 143.532 127.233 144.476 128.074C144.916 128.465 145.29 128.777 145.562 128.996C145.907 128.94 146.389 128.855 146.967 128.733C148.208 128.471 149.873 128.044 151.592 127.383C155.14 126.018 158.405 123.857 159.279 120.595C160.006 117.879 158.305 114.946 155.305 114.142C153.559 113.675 151.815 114.056 150.527 115Z" stroke="#DFE6FF" stroke-width="3"/>
<path d="M1004.01 7.6029L1002.98 9.16311L1001.68 7.81903C1000.57 6.67082 998.916 6.00134 997.117 6.16821C994.024 6.455 991.853 9.05868 992.112 11.8587L992.112 11.8587C992.428 15.2606 995.285 17.9406 998.546 19.8716C1000.13 20.8077 1001.69 21.5024 1002.87 21.9638C1003.42 22.1783 1003.88 22.3406 1004.21 22.4519C1004.51 22.2797 1004.94 22.0329 1005.44 21.718C1006.51 21.0419 1007.92 20.0632 1009.31 18.8471C1012.16 16.3355 1014.47 13.1765 1014.16 9.81397C1013.9 7.01388 1011.29 4.85399 1008.2 5.14078C1006.4 5.30765 1004.89 6.27015 1004.01 7.6029Z" stroke="#DFE6FF" stroke-width="3"/>
<path d="M14.0119 339.603L12.9816 341.163L11.6819 339.819C10.5716 338.671 8.91623 338.001 7.11696 338.168C4.02455 338.455 1.85292 341.059 2.11265 343.859L2.11266 343.859C2.42815 347.261 5.28479 349.941 8.54599 351.872C10.1268 352.808 11.6948 353.502 12.8726 353.964C13.4202 354.178 13.8791 354.341 14.2101 354.452C14.5152 354.28 14.9371 354.033 15.4367 353.718C16.5098 353.042 17.9237 352.063 19.306 350.847C22.1608 348.336 24.4727 345.176 24.1609 341.814C23.9012 339.014 21.2878 336.854 18.1955 337.141C16.3962 337.308 14.8921 338.27 14.0119 339.603Z" stroke="#DFE6FF" stroke-width="3"/>
<path d="M1324.01 242.603L1322.98 244.163L1321.68 242.819C1320.57 241.671 1318.92 241.001 1317.12 241.168C1314.02 241.455 1311.85 244.059 1312.11 246.859L1312.11 246.859C1312.43 250.261 1315.28 252.941 1318.55 254.872C1320.13 255.808 1321.69 256.502 1322.87 256.964C1323.42 257.178 1323.88 257.341 1324.21 257.452C1324.51 257.28 1324.94 257.033 1325.44 256.718C1326.51 256.042 1327.92 255.063 1329.31 253.847C1332.16 251.336 1334.47 248.176 1334.16 244.814C1333.9 242.014 1331.29 239.854 1328.2 240.141C1326.4 240.308 1324.89 241.27 1324.01 242.603Z" stroke="#DFE6FF" stroke-width="3"/>
<g clip-path="url(#clip7)">
<path d="M1422.1 107.075L1411.72 94.4696C1409.64 91.9453 1404.84 92.5744 1400.8 95.9025C1396.77 99.2306 1395.23 103.815 1397.31 106.34L1407.7 118.945C1409.78 121.47 1414.57 120.84 1418.61 117.512C1422.65 114.184 1424.18 109.6 1422.1 107.075ZM1417.83 105.558C1415.76 105.714 1413.37 106.715 1411.19 108.508C1409.02 110.301 1407.57 112.457 1407.03 114.461L1401.58 107.856C1403.66 107.701 1406.05 106.699 1408.22 104.907C1410.4 103.114 1411.84 100.958 1412.39 98.9539L1417.83 105.558ZM1402.29 97.7033C1405.47 95.0802 1408.86 94.6757 1409.92 95.9533C1410.97 97.2309 1409.92 100.483 1406.74 103.106C1403.56 105.729 1400.16 106.133 1399.11 104.856C1398.06 103.578 1399.1 100.327 1402.29 97.7033ZM1417.13 115.711C1413.94 118.335 1410.55 118.739 1409.5 117.462C1408.45 116.184 1409.49 112.932 1412.67 110.309C1415.86 107.686 1419.25 107.281 1420.3 108.559C1421.36 109.837 1420.31 113.088 1417.13 115.711Z" fill="#CBD3F2"/>
</g>
<g opacity="0.4" clip-path="url(#clip8)">
<path d="M1274.12 419C1267.44 422.86 1265.14 431.439 1269 438.124C1272.86 444.809 1281.44 447.109 1288.12 443.249C1294.81 439.389 1297.11 430.809 1293.25 424.124C1289.39 417.439 1280.81 415.14 1274.12 419ZM1275.29 421.021C1279.45 418.621 1284.48 419.081 1288.11 421.781C1285.17 421.758 1281.43 422.865 1277.62 425.062C1273.82 427.259 1270.99 429.948 1269.54 432.499C1269.02 428.009 1271.13 423.421 1275.29 421.021ZM1283.46 435.166C1277.67 438.504 1272.12 438.865 1271.02 436.958C1269.92 435.05 1273.01 430.422 1278.79 427.083C1284.57 423.744 1290.13 423.384 1291.23 425.291C1292.33 427.199 1289.24 431.827 1283.46 435.166ZM1286.96 441.228C1282.8 443.628 1277.77 443.168 1274.14 440.468C1277.07 440.49 1280.82 439.383 1284.62 437.187C1288.43 434.99 1291.26 432.3 1292.71 429.75C1293.23 434.239 1291.11 438.828 1286.96 441.228Z" fill="#B0C1FF"/>
</g>
<defs>
<clipPath id="clip0">
<rect width="28" height="28" fill="white" transform="translate(1157.68 88) rotate(29.2488)"/>
</clipPath>
<clipPath id="clip1">
<rect width="28" height="28" fill="white" transform="translate(221.681 447) rotate(29.2488)"/>
</clipPath>
<clipPath id="clip2">
<rect width="28" height="28" fill="white" transform="translate(18 25) rotate(-30)"/>
</clipPath>
<clipPath id="clip3">
<rect width="28" height="28" fill="white" transform="translate(189.025 249) rotate(4.14778)"/>
</clipPath>
<clipPath id="clip4">
<rect width="28" height="28" fill="white" transform="translate(656.118 66) rotate(2.28885)"/>
</clipPath>
<clipPath id="clip5">
<rect width="28" height="28" fill="white" transform="translate(382 3.93817) rotate(-8.08541)"/>
</clipPath>
<clipPath id="clip6">
<rect width="28" height="28" fill="white" transform="translate(1152 325.431) rotate(-11.1852)"/>
</clipPath>
<clipPath id="clip7">
<rect width="28" height="28" fill="white" transform="translate(1390 104.805) rotate(-39.4863)"/>
</clipPath>
<clipPath id="clip8">
<rect width="28" height="28" fill="white" transform="translate(1262 426) rotate(-30)"/>
</clipPath>
</defs>
</svg>
