<svg viewBox="0 0 576 311" fill="none" xmlns="http://www.w3.org/2000/svg" preserveAspectRatio="none">
<path opacity="0.2" fill-rule="evenodd" clip-rule="evenodd" d="M329.712 -372.238L537.018 -8.64206L533.002 -5.71585C513.612 -26.9004 490.395 -49.9586 467.498 -69.2175C444.532 -88.5341 422.133 -103.817 404.353 -109.729C395.461 -112.685 388.1 -113.169 382.488 -111.046C377.03 -108.981 372.708 -104.245 370.25 -95.4999C367.77 -86.6711 367.269 -73.9671 369.456 -56.5211C371.638 -39.1115 376.472 -17.1581 384.507 10.074C385.782 14.3955 386.92 18.6568 387.925 22.8585C400.851 27.4203 412.117 34.7389 421.14 44.8183C428.765 53.3358 434.709 63.7391 438.682 75.975L499.868 -20.0115L504.33 -17.8235C494.631 9.20792 485.06 40.499 478.7 69.7346C472.321 99.0579 469.246 125.999 472.308 144.485C473.839 153.729 476.844 160.467 481.339 164.441C484.647 167.367 489.006 169.003 494.782 168.801C493.945 165.625 493.052 162.427 492.102 159.207C484.01 131.781 480.51 110.344 480.842 94.0277C481.175 77.726 485.348 66.1937 492.985 59.0618C500.645 51.909 511.288 49.6473 523.498 50.7722C535.702 51.8964 549.793 56.4214 564.828 63.251C578.785 69.5912 593.694 77.983 608.849 87.6654C643.446 61.1142 678.948 50.3949 714.079 51.3623C714.99 51.3874 715.901 51.4203 716.812 51.4611L688.418 -155.222L693.372 -155.902L721.901 51.7697C761.478 54.7953 800.185 72.296 836.203 97.7604C871.254 122.541 903.911 154.97 932.542 189.291C955.523 196.839 969.903 209.062 979.386 223.226C990.119 239.259 994.329 257.498 997.926 273.084C998.068 273.7 998.209 274.311 998.35 274.918C999.257 278.835 1000.13 282.549 1001.07 286.015C1006.04 294.297 1010.64 302.356 1014.87 310.099L1011.32 313.4C1005.9 309.917 1002.38 304.449 999.765 298.042C998.501 294.948 997.421 291.568 996.434 287.997C978.391 257.935 955.696 224.99 929.636 193.616C898.976 183.924 851.984 182.507 778.528 197.013C765.264 199.633 753.501 202.778 743.14 206.369L743.328 207.734L742.335 206.65C703.227 220.389 684.352 240.536 680.346 262.665C675.217 290.993 694.046 324.347 730.177 354.752C802.209 415.366 940.169 461.691 1075.48 429.128L1076.65 433.989C939.7 466.946 800.13 420.151 726.958 358.577C690.487 327.887 669.795 292.879 675.426 261.774C679.813 237.538 699.939 216.731 738.679 202.656L737.916 201.822C708.741 169.947 657.8 125.363 609.127 93.7899C603.071 98.5966 597.037 103.911 591.03 109.759C570.572 129.677 553.193 144.387 538.513 154.643C523.863 164.878 511.753 170.782 501.845 172.906C501.571 172.965 501.298 173.021 501.027 173.074C526.23 275.883 493.219 355.971 435.242 411.179C374.556 468.968 286.618 499.429 209.76 500.542L208.493 495.866C210.946 494.479 213.643 493.014 216.564 491.428L216.567 491.427C237.462 480.078 269.774 462.527 305.512 423.116C346.264 378.177 391.551 304.692 428.946 179.44C439.963 142.543 441.78 112.148 436.772 88.2746L279.108 335.612L274.892 332.924L435.133 81.5438C431.388 68.1116 425.316 56.9803 417.414 48.1532C409.723 39.5617 400.207 33.0526 389.246 28.7002C399.215 75.5666 392.4 114.864 373.991 147.571C353.238 184.443 317.908 212.666 275.999 233.969C217.448 263.732 145.669 280.186 81.6341 287.776C75.1858 305.648 69.3066 324.453 64.0915 344.199L59.2573 342.923C64.282 323.897 69.9224 305.729 76.0957 288.412C51.3257 291.171 27.8239 292.604 6.83099 292.973C5.42096 309.388 5.50585 325.846 7.29518 342.229L2.3247 342.771C-5.33068 272.683 17.597 201.596 54.8832 138.445C92.1775 75.2803 143.951 19.8539 194.337 -18.9977C219.533 -38.4252 244.433 -53.7481 267.058 -63.8208C289.628 -73.869 310.175 -78.8006 326.573 -77.1358C334.81 -76.2997 342.076 -73.7905 347.997 -69.3551C353.931 -64.9095 358.369 -58.636 361.101 -50.5188C366.334 -34.9691 365.331 -12.6118 356.803 17.2604C365.795 17.5538 374.349 18.8293 382.341 21.0877C381.542 17.924 380.666 14.7246 379.711 11.4889C371.631 -15.8968 366.721 -38.1303 364.494 -55.8992C362.272 -73.6316 362.696 -87.0975 365.437 -96.8525C368.201 -106.691 373.398 -112.953 380.718 -115.722C387.885 -118.433 396.561 -117.588 405.93 -114.473C424.67 -108.243 447.681 -92.4195 470.716 -73.0439C488.344 -58.2166 506.13 -41.1851 522.23 -24.4839L325.368 -369.762L329.712 -372.238ZM383.691 26.7183C374.987 23.9481 365.481 22.4363 355.342 22.2159C317.442 147.466 240.016 209.602 166.998 243.159C139.183 255.942 112.021 264.573 87.9676 270.977C86.4724 274.776 85.0031 278.62 83.5609 282.508C146.521 274.84 216.595 258.557 273.733 229.512C315.128 208.47 349.533 180.831 369.634 145.119C387.772 112.892 394.388 73.8681 383.691 26.7183ZM77.9915 283.167C79.3028 279.587 80.637 276.045 81.9933 272.539C76.5142 273.948 71.2149 275.244 66.1266 276.452C59.5761 278.008 53.4161 279.409 47.6732 280.714C40.7446 282.29 34.4231 283.728 28.755 285.132C25.3179 285.984 22.1767 286.811 19.3438 287.632C37.5741 286.969 57.3634 285.53 77.9915 283.167ZM90.2857 265.175C113.249 258.923 138.803 250.613 164.91 238.615C236.598 205.669 312.548 144.88 350.115 22.2156C338.378 22.4648 325.864 24.382 312.818 28.0152C237.832 48.8987 146.589 126.315 90.2857 265.175ZM351.617 17.1997C338.922 17.3117 325.432 19.3121 311.477 23.1985C233.996 44.7768 140.876 124.662 84.2519 266.787C77.562 268.542 71.1173 270.128 64.9713 271.587C58.5541 273.111 52.4218 274.506 46.6748 275.814L46.6725 275.814L46.6499 275.819C39.6523 277.411 33.2262 278.873 27.5523 280.279C19.4815 282.279 12.6226 284.235 7.47161 286.432C12.9875 236.269 32.2253 186.654 59.1887 140.987C96.1317 78.4174 147.463 23.4599 197.39 -15.0381C222.352 -34.2854 246.912 -49.3787 269.091 -59.2531C291.326 -69.152 310.929 -73.6983 326.068 -72.1614C333.601 -71.3967 339.951 -69.1352 344.999 -65.3535C350.033 -61.5822 353.916 -56.1924 356.362 -48.9239C361.189 -34.5834 360.395 -12.987 351.617 17.1997ZM440.535 82.3702C447.119 108.064 445.63 141.039 433.737 180.871C396.178 306.669 350.576 380.865 309.216 426.475C273.524 465.835 241.054 483.816 220.071 495.214C293.269 491.659 374.842 461.791 431.794 407.558C488.632 353.434 521.04 274.982 496.042 173.739C488.723 174.228 482.706 172.325 478.027 168.187C472.287 163.112 468.989 155.042 467.375 145.302C464.148 125.819 467.416 98.0846 473.814 68.6718C478.711 46.1632 485.483 22.4876 492.75 0.457397L440.535 82.3702ZM499.798 168.219C500.127 168.157 500.46 168.09 500.797 168.017C509.764 166.095 521.236 160.614 535.649 150.544C550.033 140.496 567.199 125.982 587.542 106.176C593.226 100.642 598.943 95.5703 604.685 90.9409C590.232 81.7773 576.045 73.8381 562.76 67.8033C547.969 61.0847 534.457 56.8028 523.04 55.7511C511.629 54.7 502.634 56.8933 496.398 62.7162C490.14 68.5601 486.159 78.5244 485.841 94.1297C485.523 109.721 488.875 130.602 496.898 157.792C497.931 161.293 498.897 164.769 499.798 168.219ZM613.313 90.5504C659.135 120.488 706.557 161.483 736.211 192.668L717.504 56.4998C716.317 56.4396 715.129 56.3931 713.941 56.3604C680.547 55.4408 646.629 65.4262 613.313 90.5504ZM722.598 56.8413L742.448 201.328C752.862 197.77 764.549 194.677 777.56 192.108C845.837 178.625 892.107 178.694 923.881 186.778C896.669 154.874 866.019 124.963 833.317 101.843C798.073 76.9262 760.604 60.0089 722.598 56.8413ZM938.857 196.972C959.148 222.002 977.263 247.8 992.585 272.18C989.072 257.037 984.954 240.532 975.231 226.008C967.597 214.605 956.362 204.255 938.857 196.972Z" fill="white"/>
</svg>
