<svg width="358" height="280" viewBox="0 0 358 280" fill="none" xmlns="http://www.w3.org/2000/svg">
<mask id="mask0" mask-type="alpha" maskUnits="userSpaceOnUse" x="0" y="0" width="358" height="280">
<rect width="358" height="280" rx="8" fill="#141D30"/>
<rect x="1" y="1" width="356" height="278" rx="7" stroke="#644BEC" stroke-opacity="0.2" stroke-width="2"/>
</mask>
<g mask="url(#mask0)">
<path opacity="0.2" d="M12.2796 308.36C-6.06592 58.5211 268.656 -208.13 223.289 17.8955C177.922 243.921 36.3925 241.267 12.2796 261.548C104.658 259.557 279.66 206.402 240.645 9.70708C201.63 -186.987 286.019 -83.164 333.091 -6.66551L207.616 -334.019" stroke="white" stroke-width="5"/>
<path opacity="0.2" d="M660.672 388.542C495.88 447.53 324.715 220.868 480.29 175.167C635.864 129.467 598.997 257.995 622.302 280.267C578.042 159.639 464.825 -45.8532 366.042 97.2056C267.259 240.264 289.652 80.8052 313.196 -16.8067L177.026 300.949" stroke="white" stroke-width="5"/>
<path opacity="0.2" d="M46.6974 309.315C107.274 -31.8651 315.811 -63.8273 270.443 162.198C225.076 388.224 160.419 428.118 136.306 448.399C228.684 446.408 347.686 339.396 308.671 142.701C269.656 -53.9935 410.046 103.687 457.118 180.185L427.541 -140.056" stroke="white" stroke-width="5"/>
</g>
</svg>
