<svg width="107" height="306" viewBox="0 0 107 306" fill="none" xmlns="http://www.w3.org/2000/svg">
<mask id="mask0" mask-type="alpha" maskUnits="userSpaceOnUse" x="0" y="0" width="107" height="306">
<rect width="107" height="306" rx="8" fill="#644BEC"/>
</mask>
<g mask="url(#mask0)">
<path opacity="0.2" d="M-15.1742 501.426L57.4202 533.574M-15.1742 501.426L10.3327 469.11M-15.1742 501.426L-3.7556 378.295M57.4202 533.574L43.5447 485.967M57.4202 533.574L10.3327 469.11M43.5447 485.967L48.6835 420.52M43.5447 485.967L10.3327 469.11M48.6835 420.52L110.283 493.407L114.091 374.161M48.6835 420.52L10.3327 469.11M48.6835 420.52L114.091 374.161M48.6835 420.52L58.1321 297.552M48.6835 420.52L-3.7556 378.295M114.091 374.161L80.6779 252.599M114.091 374.161L175.976 317.259L80.6779 252.599M114.091 374.161L58.1321 297.552M80.6779 252.599L58.1321 297.552M80.6779 252.599L15.3286 286.499L-3.7556 378.295M10.3327 469.11L-3.7556 378.295M58.1321 297.552L-3.7556 378.295" stroke="white" stroke-width="2"/>
<path opacity="0.2" d="M7.45496 -209.954L-19.178 -93.8399M7.45496 -209.954L24.3611 -164.787M7.45496 -209.954L80.4631 -178.847M-19.178 -93.8399L10.882 -111.88M-19.178 -93.8399L24.3611 -164.787M10.882 -111.88L49.7802 -96.8749M10.882 -111.88L24.3611 -164.787M49.7802 -96.8749L-0.285579 -2.91588L71.1453 15.29M49.7802 -96.8749L24.3611 -164.787M49.7802 -96.8749L71.1453 15.29M49.7802 -96.8749L122.887 -69.0224M49.7802 -96.8749L80.4631 -178.847M71.1453 15.29L147.7 -27.4562M71.1453 15.29L99.2123 122.723L147.7 -27.4562M71.1453 15.29L122.887 -69.0224M147.7 -27.4562L122.887 -69.0224M147.7 -27.4562L133.832 -138.278L80.4631 -178.847M24.3611 -164.787L80.4631 -178.847M122.887 -69.0224L80.4631 -178.847" stroke="white" stroke-width="2"/>
</g>
</svg>
