<svg width="232" height="460" viewBox="0 0 232 460" fill="none" xmlns="http://www.w3.org/2000/svg">
<mask id="mask0" mask-type="alpha" maskUnits="userSpaceOnUse" x="0" y="0" width="232" height="460">
<rect width="232" height="460" rx="8" fill="#644BEC"/>
</mask>
<g mask="url(#mask0)">
<g opacity="0.2">
<path fill-rule="evenodd" clip-rule="evenodd" d="M32.0655 -188.741L-13.5718 -68.3127L38.7472 -87.3165L100.138 -72.9833L17.2674 21.1499L137.171 39.647L184.448 149.178L266.28 -4.22781L243.104 -116.323L154.119 -157.265L32.0655 -188.741ZM99.7461 -76.1555L40.7263 -89.9351L61.1779 -138.523L99.7461 -76.1555ZM102.921 -76.7259L63.394 -140.643L150.632 -153.876L102.921 -76.7259ZM105.297 -74.8653L153.634 -153.026L220.467 -48.3076L105.297 -74.8653ZM138.914 35.4996L220.709 -45.173L105.139 -71.8232L138.914 35.4996ZM136.065 36.4408L102.289 -70.8859L23.1391 19.0202L136.065 36.4408ZM184.734 142.269L140.242 39.1909L261.597 -1.82274L184.734 142.269ZM240.473 -114.231L262.204 -9.12289L224.885 -46.962L157.625 -152.349L240.473 -114.231ZM36.23 -184.569L146.128 -156.227L61.6785 -143.417L36.23 -184.569ZM33.3165 -183.577L59.0191 -142.014L-7.174 -76.7294L33.3165 -183.577ZM56.6249 -135.439L-5.06739 -74.5935L37.5259 -90.0647L56.6249 -135.439ZM223.691 -43.9002L261.95 -5.10876L143.912 34.784L223.691 -43.9002Z" fill="white"/>
<path fill-rule="evenodd" clip-rule="evenodd" d="M-6.08226 525.528L118.313 558.87L94.1627 508.719L102.273 446.2L204.235 519.223L210.626 398.069L314.87 340.056L154.036 274.006L44.8275 308.296L13.0071 400.935L-6.08226 525.528ZM99.1559 446.908L91.3589 507.012L40.9667 491.531L99.1559 446.908ZM98.2704 443.807L38.635 489.539L16.7278 404.065L98.2704 443.807ZM99.8835 441.256L17.2728 400.993L114.769 324.005L99.8835 441.256ZM206.325 396.751L117.863 323.45L102.926 441.109L206.325 396.751ZM207.547 399.491L104.144 443.851L201.528 513.594L207.547 399.491ZM307.967 340.464L209.865 395.06L156.899 278.425L307.967 340.464ZM47.1724 310.704L149.574 278.551L115.665 319.474L17.5466 396.954L47.1724 310.704ZM-2.34835 520.967L14.8399 408.782L36.0467 491.523L-2.34835 520.967ZM-1.06891 523.766L37.7095 494.029L109.297 553.348L-1.06891 523.766ZM44.4913 495.752L111.211 551.038L91.5507 510.209L44.4913 495.752ZM118.831 320.355L153.594 278.403L205.112 391.85L118.831 320.355Z" fill="white"/>
</g>
</g>
</svg>
