<svg width="235" height="460" viewBox="0 0 235 460" fill="none" xmlns="http://www.w3.org/2000/svg">
<mask id="mask0" mask-type="alpha" maskUnits="userSpaceOnUse" x="0" y="0" width="235" height="460">
<rect width="235" height="460" rx="8" fill="#141D30"/>
</mask>
<g mask="url(#mask0)">
<path opacity="0.2" fill-rule="evenodd" clip-rule="evenodd" d="M205.468 -53.0225L202.532 -48.9753L422.899 110.894C402.376 110.68 379.857 111.434 359.116 113.669C335.752 116.186 314.323 120.614 300.597 127.86C293.735 131.482 288.445 135.991 286.031 141.66C283.553 147.481 284.33 153.976 288.444 160.953C292.513 167.855 299.937 175.417 311.153 183.758C322.399 192.121 337.604 201.375 357.411 211.617C396.359 231.757 417.785 258.738 426.984 289.118C436.209 319.586 433.228 353.775 422.75 388.398C402.963 453.786 356.671 519.955 317.524 563.715C322.414 545.673 329.184 518.162 326.383 478.266C323.955 443.681 314.35 399.862 290.259 344.756C290.352 344.453 290.444 344.15 290.536 343.847C301.18 308.672 304.38 273.41 294.769 241.669C285.132 209.843 262.705 181.859 222.708 161.176C203.043 151.007 188.092 141.893 177.137 133.746C166.153 125.577 159.332 118.487 155.751 112.413C152.214 106.414 151.934 101.607 153.632 97.6188C155.394 93.4784 159.513 89.6695 165.931 86.2818C178.764 79.5078 199.379 75.1476 222.652 72.6397C245.836 70.1415 271.338 69.5111 293.726 70.0247L294.392 65.1006L-22.3915 -14.4236L-23.6089 -9.57412L273.015 64.8893C256.188 65.0529 238.591 65.8932 222.116 67.6685C198.752 70.1862 177.323 74.6142 163.597 81.86C156.735 85.4823 151.445 89.9912 149.031 95.6603C146.553 101.481 147.33 107.976 151.444 114.953C155.513 121.855 162.937 129.416 174.153 137.758C185.399 146.121 200.604 155.375 220.411 165.617C259.359 185.757 280.785 212.738 289.984 243.118C298.792 272.209 296.472 304.692 287.125 337.706C278.351 318.286 267.802 297.501 255.174 275.266C229.732 230.47 199.783 209.596 171.261 208.626C143.696 207.689 118.548 225.369 101.222 255.676C85.8068 261.085 71.5348 272.852 59.0169 289.018C19.7971 339.665 -3.90325 435.436 5.97792 527.269L10.9492 526.734C1.16552 435.807 24.7482 341.437 62.9702 292.079C73.6143 278.333 85.2617 268.23 97.5238 262.573C64.6099 328.058 64.7242 445.647 143.33 574.305L147.597 571.698C68.18 441.713 70.1147 324.109 103.772 261.39C104.055 260.863 104.34 260.339 104.628 259.82C112.157 257.452 119.883 256.757 127.72 257.913C151.166 261.37 176.711 281.514 201.826 325.736C230.607 376.412 241.108 411.408 241.532 436.35C224.786 463.274 206.063 488.108 188.314 508.817C185.923 510.425 183.69 512.058 181.709 513.759C177.568 517.313 174.295 521.357 173.014 526.384L177.266 528.705C181.945 523.678 186.764 518.294 191.661 512.594C193.965 511.065 196.469 509.518 199.124 507.893C199.545 507.636 199.97 507.376 200.398 507.115C211.036 500.616 223.579 492.955 232.865 480.973C241.083 470.369 246.604 456.636 246.554 437.739C263.336 410.593 278.114 381.343 287.938 351.996C310.174 404.191 319.09 445.773 321.396 478.616C324.296 519.934 316.76 547.534 311.874 565.429L311.872 565.435C311.189 567.938 310.558 570.25 310.014 572.384L314.266 574.705C354.978 530.973 406.259 460.156 427.536 389.847C438.18 354.672 441.38 319.41 431.769 287.669C422.133 255.843 399.705 227.859 359.708 207.176C340.043 197.007 325.092 187.893 314.137 179.746C303.153 171.577 296.332 164.487 292.751 158.413C289.214 152.414 288.934 147.607 290.632 143.619C292.395 139.478 296.513 135.669 302.931 132.282C315.764 125.508 336.379 121.148 359.652 118.64C382.836 116.141 408.338 115.511 430.726 116.025L438.739 116.209L205.468 -53.0225ZM284.931 345.058C275.777 324.289 264.542 301.886 250.826 277.736C225.783 233.642 197.114 214.508 171.091 213.623C147.326 212.815 124.797 227.202 108.241 253.676C114.809 252.234 121.56 251.951 128.45 252.966C154.206 256.764 180.804 278.597 206.174 323.266C232.414 369.468 243.903 403.352 246.139 428.805C262.154 402.075 276.009 373.523 284.931 345.058ZM201.935 500.301C215.135 484.07 228.585 465.819 241.132 446.331C239.755 459.875 235.062 469.976 228.913 477.91C221.362 487.653 211.46 494.388 201.935 500.301Z" fill="white"/>
</g>
</svg>
