<svg width="115" height="306" viewBox="0 0 115 306" fill="none" xmlns="http://www.w3.org/2000/svg">
<mask id="mask0" mask-type="alpha" maskUnits="userSpaceOnUse" x="0" y="0" width="115" height="306">
<rect width="115" height="306" rx="8" fill="#644BEC"/>
</mask>
<g mask="url(#mask0)">
<path opacity="0.2" d="M-7.17421 501.426L65.4202 533.574M-7.17421 501.426L18.3327 469.11M-7.17421 501.426L4.2444 378.295M65.4202 533.574L51.5447 485.967M65.4202 533.574L18.3327 469.11M51.5447 485.967L56.6835 420.52M51.5447 485.967L18.3327 469.11M56.6835 420.52L118.283 493.407L122.091 374.161M56.6835 420.52L18.3327 469.11M56.6835 420.52L122.091 374.161M56.6835 420.52L66.1321 297.552M56.6835 420.52L4.2444 378.295M122.091 374.161L88.6779 252.599M122.091 374.161L183.976 317.259L88.6779 252.599M122.091 374.161L66.1321 297.552M88.6779 252.599L66.1321 297.552M88.6779 252.599L23.3286 286.499L4.2444 378.295M18.3327 469.11L4.2444 378.295M66.1321 297.552L4.2444 378.295" stroke="white" stroke-width="2"/>
<path opacity="0.2" d="M15.455 -209.954L-11.178 -93.8399M15.455 -209.954L32.3611 -164.787M15.455 -209.954L88.4631 -178.847M-11.178 -93.8399L18.882 -111.88M-11.178 -93.8399L32.3611 -164.787M18.882 -111.88L57.7802 -96.8749M18.882 -111.88L32.3611 -164.787M57.7802 -96.8749L7.71442 -2.91588L79.1453 15.29M57.7802 -96.8749L32.3611 -164.787M57.7802 -96.8749L79.1453 15.29M57.7802 -96.8749L130.887 -69.0224M57.7802 -96.8749L88.4631 -178.847M79.1453 15.29L155.7 -27.4562M79.1453 15.29L107.212 122.723L155.7 -27.4562M79.1453 15.29L130.887 -69.0224M155.7 -27.4562L130.887 -69.0224M155.7 -27.4562L141.832 -138.278L88.4631 -178.847M32.3611 -164.787L88.4631 -178.847M130.887 -69.0224L88.4631 -178.847" stroke="white" stroke-width="2"/>
</g>
</svg>
