<svg width="56" height="56" viewBox="0 0 56 56" fill="none" xmlns="http://www.w3.org/2000/svg">
<path d="M20.5 47H18V44H14.5V47H10.5V44H7V55H20.5M20.5 47V39.5M20.5 47V51M20.5 39.5H23M20.5 39.5C20.5 39.5 20.5 37.9763 20.5 37M23 39.5V30.5H24.5M23 39.5H34M24.5 30.5V19.5H26M24.5 30.5H32.5M26 19.5L28.5 6L31 19.5M26 19.5H31M36.5 47H39V44H42.5V47H46.5V44H50V55H36.5M36.5 47V39.5M36.5 47V51M36.5 39.5H34M36.5 39.5V37M34 39.5V30.5H32.5M32.5 30.5V19.5H31M20.5 55H36.5M20.5 55V51M36.5 55V51M36.5 51H20.5" stroke="#644BEC" stroke-width="2"/>
<path d="M28.3008 1.58541C28.3606 1.40115 28.6213 1.40115 28.6812 1.58541L29.0073 2.58926C29.0341 2.67167 29.1109 2.72746 29.1976 2.72746H30.2531C30.4468 2.72746 30.5274 2.97538 30.3706 3.08926L29.5167 3.70967C29.4466 3.7606 29.4173 3.85088 29.444 3.93328L29.7702 4.93713C29.8301 5.12139 29.6192 5.27462 29.4625 5.16074L28.6085 4.54033C28.5384 4.4894 28.4435 4.4894 28.3734 4.54033L27.5195 5.16074C27.3627 5.27462 27.1518 5.12139 27.2117 4.93713L27.5379 3.93328C27.5647 3.85088 27.5353 3.7606 27.4652 3.70967L26.6113 3.08926C26.4546 2.97538 26.5351 2.72746 26.7289 2.72746H27.7844C27.871 2.72746 27.9478 2.67167 27.9746 2.58926L28.3008 1.58541Z" fill="#644BEC"/>
</svg>
