<svg width="56" height="56" viewBox="0 0 56 56" fill="none" xmlns="http://www.w3.org/2000/svg">
<g clip-path="url(#clip0)">
<path d="M24 13H12V55.5H24M24 13H28.25H32M24 13V55.5M24 55.5H28.25H32M32 55.5H44.5V13H32M32 55.5V13M15 18H21V22H15V18ZM15 27H21V31H15V27ZM15 37H21V41H15V37ZM15 46H21V50H15V46ZM35 18H41V22H35V18ZM35 27H41V31H35V27ZM35 37H41V41H35V37ZM35 46H41V50H35V46Z" stroke="#644BEC" stroke-width="2"/>
</g>
<defs>
<clipPath id="clip0">
<rect width="56" height="56" fill="white"/>
</clipPath>
</defs>
</svg>
